**ABCDEFGHIJKLMNOPQRSTUVWXYZabcdefghijklmnopqrstuvwxyz**************************
**PARASOLID !"#$%&'()*+,-./:;<=>?@[\]^_`{|}~0123456789**************************
**PART1;
MC=AMD64;
MC_MODEL=Intel64 Family 6 Model 58 Stepping 9, GenuineIntel;
MC_ID=unknown;
OS=Windows_NT;
OS_RELEASE=unknown;
FRU=Parasolid Version 30.0, build 310,  6- 8-2018;
APPL=SOLIDWORKS 2018-2018211;
SITE=;
USER=unknown;
FORMAT=text;
GUISE=transmit;
KEY=arm_cast;
FILE=arm_cast.x_t;
DATE=Sun Dec  2 20:42:26 2018;
**PART2;
SCH=SCH_3000310_30000;
USFLD_SIZE=0;
**PART3;
**END_OF_HEADER*****************************************************************
T51 : TRANSMIT FILE created by modeller version 300031023 SCH_3000310_30000_1300
6205 0 12 33 CCCCCCI4 mesh1006 0 I8 polyline1008 0 CCCCCCCDI5 owner1040 0 CCCCCC
I13 boundary_mesh1006 0 I17 boundary_polyline1008 0 CCCA16 index_map_offset0 0 1
 dA9 index_map82 0 A17 node_id_index_map82 0 A20 schema_embedding_map82 0 A5 chi
ld12 0 A14 lowest_node_id0 0 1 dZ1 1336 2 3 0 0 0 0 0 0 1e3 1e-8 0 4 0 1 0 1 1 5
 6 7 8 0 0 9 10 11 0 0 0 0 0 0 81 255 2 2 1068 12 1 0 0 0 0 13 0 70 11 CI9 list_
type0 0 1 uI10 notransmit0 0 1 lCCCDCCDI12 finger_index0 0 1 dI12 finger_block10
12 0 CZ3 0 4 T1 0 0 3 20 1 14 14 13 255 5 254 0 1 0 15 0 0 16 0 50 255 6 241 0 1
5 17 0 0 +.004 -3709568266293385e-34 .11 -927392066573346e-31 -1 0 1 -9273920665
73346e-31 0 31 255 7 845 0 18 19 0 0 +.0103 -.03815 .02 1 0 1734723475976805e-31
 1734723475976805e-31 0 -1 .002 29 255 8 452 0 11 20 0 .0827 -.0194482688497058
 .095 19 8 CCCCCCCA5 owner12 0 Z9 76 0 1 16 0 21 V0 16 255 10 205 0 ?22 0 23 24
 0 0 1 18 255 11 450 0 25 0 26 8 ?1 17 255 25 0 27 28 29 11 30 31 0 32 -18 26 34
7 0 33 11 34 20 ?1 17 33 0 35 36 37 26 38 39 0 40 -18 34 73 0 41 26 42 43 ?1 29
 20 349 0 26 44 8 .0103 -.02744826884970575 .035 29 44 182 0 45 46 20 .004 -3709
568266293385e-34 0 18 45 157 0 47 48 49 44 ?1 29 46 183 0 49 50 44 .004 -.015491
4146002134 0 18 49 158 0 51 45 52 46 ?1 29 50 184 0 52 53 46 .01450858539978666
 -.026 0 18 52 159 0 54 49 55 50 ?1 29 53 185 0 55 56 50 .0704914146002134 -.026
 0 18 55 160 0 57 52 58 53 ?1 29 56 186 0 58 59 53 .081 -.0154914146002134 0 18
 58 161 0 60 55 61 56 ?1 29 59 187 0 61 62 56 .081 -123235608057657e-32 0 18 61
 162 0 63 58 64 59 ?1 29 62 188 0 64 65 59 .085 -742497360917623e-33 0 18 64 163
 0 66 61 67 62 ?1 29 65 189 0 67 68 62 .085 -.0171482688497058 0 18 67 164 0 69
 64 70 65 ?1 29 68 190 0 70 71 65 .0721482688497058 -.03 0 18 70 165 0 72 67 73
 68 ?1 29 71 191 0 73 74 68 .01285173115029426 -.03 0 18 73 166 0 75 70 76 71 ?1
 29 74 192 0 76 77 71 2048383339347745e-33 -.0171482688497058 0 18 76 167 0 78 7
3 79 74 ?1 29 77 193 0 79 43 74 0 0 0 18 79 168 0 80 76 81 77 ?1 29 43 75 0 34 8
2 77 .004 -3709568266293385e-34 .11 29 82 72 0 42 83 43 .004 -.0154914146002134
 .11 18 42 70 0 84 34 85 82 ?1 29 83 69 0 85 86 82 .01450858539978666 -.026 .11
 18 85 67 0 87 42 88 83 ?1 29 86 66 0 88 89 83 .0704914146002134 -.026 .11 18 88
 64 0 90 85 91 86 ?1 29 89 63 0 91 92 86 .081 -.0154914146002134 .11 18 91 61 0
 93 88 94 89 ?1 29 92 60 0 94 95 89 .081 -123235608057657e-32 .11 18 94 58 0 96
 91 97 92 ?1 29 95 57 0 97 98 92 .085 -742497360917623e-33 .11 18 97 55 0 99 94
 100 95 ?1 29 98 54 0 100 101 95 .085 -.0171482688497058 .11 18 100 52 0 102 97
 103 98 ?1 29 101 51 0 103 104 98 .0721482688497058 -.03 .11 18 103 49 0 105 100
 106 101 ?1 29 104 48 0 106 107 101 .01285173115029426 -.03 .11 18 106 46 0 108
 103 109 104 ?1 29 107 45 0 109 110 104 2048383339347745e-33 -.0171482688497058
 .11 18 109 43 0 111 106 48 107 ?1 29 110 42 0 48 112 107 0 0 .11 18 48 40 0 113
 109 45 110 ?1 29 112 438 0 81 114 110 .0033 -.02044826884970575 .015 18 81 388
 0 115 79 116 112 ?1 29 114 439 0 116 117 112 .0103 -.02744826884970575 .015 18
 116 386 0 118 81 119 114 ?1 29 117 440 0 119 120 114 .0033 -.02044826884970575
 .035 18 119 385 0 36 116 121 117 ?1 29 120 546 0 121 122 117 .0757 -.0264482688
497058 .095 18 121 488 0 28 119 123 120 ?1 29 122 547 0 123 124 120 .0827 -.0194
4826884970575 .075 18 123 491 0 125 121 126 122 ?1 29 124 548 0 126 127 122 .075
7 -.0264482688497058 .075 18 126 489 0 128 123 129 124 ?1 29 127 663 0 129 130 1
24 .0033 -.0445 .035 18 129 615 0 131 126 132 127 ?1 29 130 664 0 132 133 127 .0
103 -.0445 .035 18 132 614 0 38 129 134 130 ?1 29 133 665 0 134 135 130 .0103 -.
0445 .015 18 134 613 0 136 132 137 133 ?1 29 135 666 0 137 138 133 .0033 -.0445
 .015 18 137 610 0 139 134 140 135 ?1 29 138 763 0 140 141 135 .0757 -.0445 .095
 18 140 715 0 142 137 143 138 ?1 29 141 764 0 143 144 138 .0827 -.0445 .095 18 1
43 714 0 30 140 145 141 ?1 29 144 765 0 145 146 141 .0827 -.0445 .075 18 145 713
 0 147 143 148 144 ?1 29 146 766 0 148 0 144 .0757 -.0445 .075 18 148 710 0 149
 145 0 146 ?1 17 149 0 150 151 128 148 152 153 0 154 +15 255 150 503 0 155 156 0
 17 151 0 150 155 149 140 157 158 0 0 -17 128 0 150 149 155 126 159 160 0 152 +1
7 152 0 161 125 154 126 149 153 0 162 -16 153 469 0 ?149 163 164 165 0 0 1 17 15
4 0 161 152 147 148 166 167 0 157 -15 161 507 0 152 168 0 17 147 0 161 154 125 1
45 169 163 0 166 +17 166 0 170 171 157 145 154 167 0 172 +16 167 700 0 ?166 173
 158 174 0 0 1 17 157 0 170 166 175 148 151 158 0 0 +15 170 735 0 157 176 0 17 1
75 0 170 157 171 140 29 177 0 151 +16 158 697 0 ?157 167 178 179 0 0 1 16 178 86
2 0 ?180 158 18 181 0 0 1 30 255 179 758 0 158 181 174 0 +.0757 -.0445 .095 0 0
 -1 31 181 1001 0 178 182 179 0 +.0033 -.03815 .02 -1 0 -1084202172485504e-31 -1
084202172485504e-31 0 1 .002 30 174 757 0 167 179 183 0 +.0757 -.0445 .075 1 0 0
 30 183 756 0 173 174 184 0 +.0827 -.0445 .095 0 0 1 16 173 703 0 ?171 177 167 1
83 0 0 1 30 184 755 0 177 183 185 0 +.0757 -.0445 .095 -1 0 0 16 177 706 0 ?175
 186 173 184 0 0 1 30 185 658 0 186 184 187 0 +.0033 -.0445 .035 130104260698260
4e-31 0 -1 16 186 597 0 ?188 189 177 185 0 0 1 30 187 657 0 189 185 190 0 +.0033
 -.0445 .015 1 0 0 16 189 600 0 ?191 192 186 187 0 0 1 30 190 656 0 192 187 193
 0 +.0103 -.0445 .035 -1734723475976805e-31 0 1 16 192 603 0 ?194 195 189 190 0
 0 1 30 193 655 0 195 190 196 0 +.0033 -.0445 .035 -1 0 0 16 195 606 0 ?197 160
 192 193 0 0 1 30 196 540 0 160 193 198 0 +.0757 -.02644826884970575 .095 0 0 -1
 16 160 468 0 ?128 199 195 196 0 0 1 30 198 539 0 199 196 200 0 +.08892513442485
29 -.01322313442485292 .075 .707106781186548 .707106781186547 0 16 199 470 0 ?12
5 201 160 198 0 0 1 30 200 538 0 201 198 202 0 +.0827 -.0194482688497058 .095 0
 0 1 16 201 472 0 ?32 164 199 200 0 0 1 30 202 537 0 164 200 165 0 +.08892513442
48529 -.01322313442485292 .095 -.707106781186548 -.707106781186547 0 16 164 474
 0 ?28 153 201 202 0 0 1 30 165 532 0 153 202 203 0 +.0757 199999999999853e-20 .
075 0 -1 0 30 203 531 0 163 165 204 0 +.0827 199999999999853e-20 .075 0 -1 0 16
 163 471 0 ?147 31 153 203 0 0 1 30 204 530 0 31 203 205 0 +.0827 19999999999985
3e-20 .095 0 -1 0 16 31 473 0 ?30 206 163 204 0 0 1 30 205 529 0 206 204 207 0 +
.0757 199999999999853e-20 .095 0 -1 0 16 206 475 0 ?142 208 31 205 0 0 1 30 207
 433 0 209 205 210 0 +.0033 199999999999853e-20 .015 0 -1 0 16 209 380 0 ?139 21
1 212 207 0 0 1 30 210 432 0 212 207 213 0 +.0103 199999999999853e-20 .015 0 -1
 0 16 212 366 0 ?136 209 39 210 0 0 1 30 213 431 0 39 210 214 0 +.0103 199999999
999853e-20 .035 0 -1 0 16 39 382 0 ?38 212 208 213 0 0 1 30 214 430 0 208 213 21
5 0 +.0033 199999999999853e-20 .035 0 -1 0 16 208 384 0 ?131 39 206 214 0 0 1 30
 215 429 0 211 214 216 0 +-.00692513442485289 -.01022313442485292 .035 -.7071067
81186549 .707106781186546 0 16 211 383 0 ?36 217 209 215 0 0 1 30 216 428 0 217
 215 218 0 +.0103 -.02744826884970575 .035 -1734723475976805e-31 17347234759768e
-29 1 16 217 381 0 ?40 219 211 216 0 0 1 30 218 427 0 219 216 220 0 +-.006925134
42485288 -.01022313442485292 .015 .707106781186549 -.707106781186546 0 16 219 36
5 0 ?118 221 217 218 0 0 1 30 220 426 0 221 218 222 0 +.0033 -.02044826884970575
 .035 1084202172485504e-31 -10842021724855e-29 -1 16 221 379 0 ?115 223 219 220
 0 0 1 30 222 5 0 224 220 225 0 +.004 -3709568266293385e-34 .11 -1 9273920665733
46e-31 0 16 224 4 0 ?226 227 228 222 0 0 1 30 225 8 0 227 222 229 0 +0 0 .11 119
4513193897638e-31 -1 0 16 227 7 0 ?111 230 224 225 0 0 1 30 229 11 0 230 225 231
 0 +2048383339347745e-33 -.0171482688497058 .11 .707106781186549 -.7071067811865
46 0 16 230 10 0 ?108 232 227 229 0 0 1 30 231 14 0 232 229 233 0 +.012851731150
29426 -.03 .11 1 0 0 16 232 13 0 ?105 234 230 231 0 0 1 30 233 17 0 234 231 235
 0 +.0721482688497058 -.03 .11 .707106781186548 .707106781186547 0 16 234 16 0 ?
102 236 232 233 0 0 1 30 235 20 0 236 233 237 0 +.085 -.0171482688497058 .11 0 1
 0 16 236 19 0 ?99 238 234 235 0 0 1 30 237 23 0 238 235 239 0 +.085 -7424973609
17623e-33 .11 -1 -1224646799147364e-31 0 16 238 22 0 ?96 240 236 237 0 0 1 30 23
9 26 0 240 237 241 0 +.081 -123235608057657e-32 .11 0 -1 0 16 240 25 0 ?93 242 2
38 239 0 0 1 30 241 29 0 242 239 243 0 +.081 -.0154914146002134 .11 -.7071067811
86549 -.707106781186547 0 16 242 28 0 ?90 244 240 241 0 0 1 30 243 32 0 244 241
 245 0 +.0704914146002134 -.026 .11 -1 -185920236696103e-30 0 16 244 31 0 ?87 24
6 242 243 0 0 1 30 245 35 0 246 243 247 0 +.01450858539978666 -.026 .11 -.707106
78118655 .707106781186546 0 16 246 34 0 ?84 248 244 245 0 0 1 30 247 38 0 248 24
5 249 0 +.004 -.0154914146002134 .11 0 1 0 16 248 37 0 ?41 250 246 247 0 0 1 30
 249 181 0 223 247 251 0 +.004 -3709568266293385e-34 0 -1 927392066573346e-31 0
 16 223 153 0 ?252 253 221 249 0 0 1 30 251 180 0 253 249 254 0 +0 0 0 119451319
3897638e-31 -1 0 16 253 149 0 ?78 255 223 251 0 0 1 30 254 179 0 255 251 256 0 +
2048383339347745e-33 -.0171482688497058 0 .707106781186549 -.707106781186546 0 1
6 255 145 0 ?75 257 253 254 0 0 1 30 256 178 0 257 254 258 0 +.01285173115029426
 -.03 0 1 0 0 16 257 141 0 ?72 259 255 256 0 0 1 30 258 177 0 259 256 260 0 +.07
21482688497058 -.03 0 .707106781186548 .707106781186547 0 16 259 137 0 ?69 261 2
57 258 0 0 1 30 260 176 0 261 258 262 0 +.085 -.0171482688497058 0 0 1 0 16 261
 133 0 ?66 263 259 260 0 0 1 30 262 175 0 263 260 264 0 +.085 -742497360917623e-
33 0 -1 -1224646799147364e-31 0 16 263 129 0 ?63 265 261 262 0 0 1 30 264 174 0
 265 262 266 0 +.081 -123235608057657e-32 0 0 -1 0 16 265 125 0 ?60 267 263 264
 0 0 1 30 266 173 0 267 264 268 0 +.081 -.0154914146002134 0 -.707106781186549 -
.707106781186547 0 16 267 121 0 ?57 269 265 266 0 0 1 30 268 172 0 269 266 270 0
 +.0704914146002134 -.026 0 -1 -185920236696103e-30 0 16 269 117 0 ?54 271 267 2
68 0 0 1 30 270 171 0 271 268 272 0 +.01450858539978666 -.026 0 -.70710678118655
 .707106781186546 0 16 271 113 0 ?51 228 269 270 0 0 1 30 272 170 0 228 270 273
 0 +.004 -.0154914146002134 0 0 1 0 16 228 109 0 ?47 224 271 272 0 0 1 30 273 24
2 0 250 272 274 0 +.004 -3709568266293385e-34 .11 0 0 -1 16 250 194 0 ?275 276 2
48 273 0 0 1 30 274 243 0 276 273 277 0 +.004 -.0154914146002134 .11 0 0 -1 16 2
76 195 0 ?278 279 250 274 0 0 1 30 277 244 0 279 274 280 0 +.01450858539978666 -
.026 .11 0 0 -1 16 279 196 0 ?281 282 276 277 0 0 1 30 280 245 0 282 277 283 0 +
.0704914146002134 -.026 .11 0 0 -1 16 282 197 0 ?284 285 279 280 0 0 1 30 283 24
6 0 285 280 286 0 +.081 -.0154914146002134 .11 0 0 -1 16 285 198 0 ?287 288 282
 283 0 0 1 30 286 247 0 288 283 289 0 +.081 -123235608057657e-32 .11 0 0 -1 16 2
88 199 0 ?290 291 285 286 0 0 1 30 289 248 0 291 286 292 0 +.085 -74249736091762
3e-33 .11 0 0 -1 16 291 200 0 ?293 294 288 289 0 0 1 30 292 249 0 294 289 295 0
 +.085 -.0171482688497058 .11 0 0 -1 16 294 201 0 ?296 297 291 292 0 0 1 30 295
 250 0 297 292 298 0 +.0721482688497058 -.03 .11 0 0 -1 16 297 202 0 ?299 300 29
4 295 0 0 1 30 298 251 0 300 295 301 0 +.01285173115029426 -.03 .11 0 0 -1 16 30
0 203 0 ?302 23 297 298 0 0 1 30 301 252 0 23 298 24 0 +2048383339347745e-33 -.0
171482688497058 .11 0 0 -1 16 23 204 0 ?303 10 300 301 0 0 1 30 24 253 0 10 301
 304 0 +0 0 .11 0 0 -1 31 304 812 0 305 24 306 0 +.0827 -.03815 .09 1 0 0 0 0 -1
 .002 16 305 956 0 ?307 308 0 304 0 0 1 31 306 819 0 309 304 19 0 +.0827 -.03815
 .08 1 0 0 0 0 -1 .002 16 309 926 0 ?310 311 308 306 0 0 1 31 19 838 0 312 306 7
 0 +.0103 -.03815 .03 1 0 1734723475976805e-31 1734723475976805e-31 0 -1 .002 16
 312 896 0 ?313 314 311 19 0 0 1 17 313 0 315 313 313 0 316 312 0 0 +16 314 892
 0 ?317 18 312 182 0 0 1 16 311 922 0 ?318 312 309 319 0 0 1 17 318 0 320 318 31
8 0 321 311 0 0 +31 319 1003 0 311 322 182 0 +.0757 -.03815 .08 -1 0 0 0 0 1 .00
2 31 322 1004 0 308 0 319 0 +.0757 -.03815 .09 -1 0 0 0 0 1 .002 31 182 1002 0 3
14 319 181 0 +.0033 -.03815 .03 -1 0 -1084202172485504e-31 -1084202172485504e-31
 0 1 .002 16 308 952 0 ?323 309 305 322 0 0 1 17 323 0 324 323 323 0 325 308 0 0
 +15 324 973 0 323 326 327 17 325 0 328 325 325 0 323 308 0 0 -15 328 825 0 325
 156 150 14 255 156 500 329 ?168 330 331 5 332 +0 0 333 168 21 81 1 329 1309 334
 156 335 0 0 336 337 14 168 504 336 ?338 156 161 5 339 +0 0 156 338 21 14 330 41
4 340 ?156 341 35 5 342 +0 0 341 343 21 15 331 831 0 321 156 328 50 332 526 0 15
6 344 339 0 +.0757 199999999999853e-20 .095 -1 0 0 0 0 1 14 333 633 345 ?176 346
 347 5 344 +0 0 176 156 21 13 21 77 0 0 0 0 0 0 9 15 14 15 229 348 ?349 0 350 5
 6 -0 0 349 0 21 81 1 348 1313 334 15 351 0 345 352 353 14 349 227 352 ?354 15 3
55 5 17 -0 0 354 15 21 15 350 228 0 252 15 0 17 252 0 350 356 275 79 357 223 0 0
 +17 356 0 350 358 252 48 22 10 0 0 -17 275 0 350 252 358 45 359 250 0 357 +17 3
57 0 360 361 80 45 252 223 0 0 -15 360 108 0 357 343 0 17 361 0 360 362 357 49 4
7 228 0 0 -17 80 0 360 357 363 79 78 253 0 22 -17 363 0 360 80 364 76 75 255 0 0
 -17 78 0 355 365 22 76 80 253 0 303 +17 22 0 355 78 113 79 356 10 0 252 +15 355
 226 0 78 349 0 17 113 0 355 22 365 48 111 227 0 226 -17 365 0 355 113 78 109 30
3 23 0 366 -17 111 0 367 108 226 109 113 227 0 365 +17 226 0 367 111 41 48 358 2
24 0 356 +15 367 3 0 226 368 0 17 41 0 367 226 84 34 369 248 0 359 +17 358 0 350
 275 356 34 226 224 0 0 -17 84 0 367 41 87 42 370 246 0 371 +17 369 0 372 278 35
9 42 41 248 0 0 -17 359 0 372 369 47 34 275 250 0 358 -15 372 206 0 47 373 0 17
 47 0 372 359 278 45 361 228 0 275 +17 278 0 372 47 369 49 371 276 0 361 +17 371
 0 374 370 51 42 278 276 0 369 -15 374 208 0 51 375 0 17 370 0 374 281 371 85 84
 246 0 0 -17 51 0 374 371 281 49 362 271 0 278 +17 281 0 374 51 370 52 376 279 0
 362 +17 362 0 360 377 361 52 51 271 0 0 -17 377 0 360 378 362 55 54 269 0 0 -17
 378 0 360 379 377 58 57 267 0 0 -17 54 0 380 376 284 52 377 269 0 281 +15 380 2
10 0 54 381 0 17 376 0 380 382 54 85 281 279 0 370 -17 284 0 380 54 382 55 383 2
82 0 377 +17 382 0 380 284 376 88 87 244 0 0 -17 383 0 384 385 57 88 284 282 0 3
82 -15 384 212 0 57 386 0 17 385 0 384 287 383 91 90 242 0 0 -17 57 0 384 383 28
7 55 378 267 0 284 +17 287 0 384 57 385 58 387 285 0 378 +17 387 0 388 389 60 91
 287 285 0 385 -15 388 214 0 60 390 0 17 389 0 388 290 387 94 93 240 0 0 -17 60
 0 388 387 290 58 379 265 0 287 +17 290 0 388 60 389 61 391 288 0 379 +17 379 0
 360 392 378 61 60 265 0 0 -17 392 0 360 393 379 64 63 263 0 0 -17 393 0 360 394
 392 67 66 261 0 0 -17 63 0 395 391 293 61 392 263 0 290 +15 395 216 0 63 396 0
 17 391 0 395 397 63 94 290 288 0 389 -17 293 0 395 63 397 64 398 291 0 392 +17
 397 0 395 293 391 97 96 238 0 0 -17 398 0 399 400 66 97 293 291 0 397 -15 399 2
18 0 66 401 0 17 400 0 399 296 398 100 99 236 0 0 -17 66 0 399 398 296 64 393 26
1 0 293 +17 296 0 399 66 400 67 402 294 0 393 +17 402 0 403 404 69 100 296 294 0
 400 -15 403 220 0 69 405 0 17 404 0 403 299 402 103 102 234 0 0 -17 69 0 403 40
2 299 67 394 259 0 296 +17 299 0 403 69 404 70 406 297 0 394 +17 394 0 360 364 3
93 70 69 259 0 0 -17 364 0 360 363 394 73 72 257 0 0 -17 72 0 407 406 302 70 364
 257 0 299 +15 407 222 0 72 408 0 17 406 0 407 409 72 103 299 297 0 404 -17 302
 0 407 72 409 73 410 300 0 364 +17 409 0 407 302 406 106 105 232 0 0 -17 410 0 4
11 366 75 106 302 300 0 409 -15 411 224 0 75 354 0 17 366 0 411 303 410 109 108
 230 0 0 -17 75 0 411 410 303 73 363 255 0 302 +17 303 0 411 75 366 76 365 23 0
 363 +17 108 0 367 105 111 106 366 230 0 410 +17 105 0 367 102 108 103 409 232 0
 406 +17 102 0 367 99 105 100 404 234 0 402 +17 99 0 367 96 102 97 400 236 0 398
 +17 96 0 367 93 99 94 397 238 0 391 +17 93 0 367 90 96 91 389 240 0 387 +17 90
 0 367 87 93 88 385 242 0 383 +17 87 0 367 84 90 85 382 244 0 376 +14 354 225 41
2 ?408 349 413 5 414 -0 0 408 349 21 81 1 412 1315 334 354 415 0 352 416 417 14
 408 223 416 ?405 354 407 5 418 -0 0 405 354 21 15 413 345 0 419 354 411 50 414
 239 0 354 418 17 0 +2048383339347745e-33 -.0171482688497058 .11 .70710678118654
6 .707106781186549 0 -.707106781186549 .707106781186546 0 50 418 238 0 408 420 4
14 0 +.01285173115029426 -.03 .11 0 1 0 0 0 1 50 17 240 0 349 414 6 0 +0 0 .11 1
 1194513193897638e-31 0 -1194513193897638e-31 1 0 50 420 237 0 405 421 418 0 +.0
721482688497058 -.03 .11 -.707106781186547 .707106781186548 0 -.707106781186548
 -.707106781186547 0 14 405 221 422 ?401 408 423 5 420 -0 0 401 408 21 50 421 23
6 0 401 424 420 0 +.085 -.0171482688497058 .11 -1 0 0 0 0 1 14 401 219 425 ?396
 405 399 5 421 -0 0 396 405 21 50 424 235 0 396 426 421 0 +.085 -742497360917623
e-33 .11 1224646799147364e-31 -1 0 1 1224646799147364e-31 0 14 396 217 427 ?390
 401 395 5 424 -0 0 390 401 21 50 426 234 0 390 428 424 0 +.081 -123235608057657
e-32 .11 1 0 0 0 0 -1 14 390 215 429 ?386 396 388 5 426 -0 0 386 396 21 50 428 2
33 0 386 430 426 0 +.081 -.0154914146002134 .11 .707106781186547 -.7071067811865
48 0 .707106781186548 .707106781186547 0 14 386 213 431 ?381 390 384 5 428 -0 0
 381 390 21 50 430 232 0 381 432 428 0 +.0704914146002134 -.026 .11 185920236696
103e-30 -1 0 1 185920236696103e-30 0 14 381 211 433 ?375 386 380 5 430 -0 0 375
 386 21 50 432 231 0 375 434 430 0 +.01450858539978666 -.026 .11 -.7071067811865
46 -.70710678118655 0 .70710678118655 -.707106781186546 0 14 375 209 435 ?373 38
1 374 5 432 -0 0 373 381 21 50 434 230 0 373 436 432 0 +.004 -.0154914146002134
 .11 -1 0 0 0 0 1 14 373 207 437 ?368 375 372 5 434 -0 0 368 375 21 50 436 169 0
 343 438 434 0 +0 0 0 0 0 1 1 0 0 14 343 107 439 ?440 368 360 5 436 -0 0 330 368
 21 50 438 2 0 368 441 436 0 +0 0 .11 0 0 1 1 0 0 14 368 1 442 ?343 373 367 5 43
8 +0 0 343 373 21 50 441 421 0 443 444 438 0 +.0033 199999999999853e-20 .035 -1
 0 -1084202172485504e-31 -1084202172485504e-31 0 1 14 443 406 445 ?341 440 446 5
 441 +0 0 440 341 21 50 444 422 0 440 447 441 0 +.0033 199999999999853e-20 .015
 0 0 -1 -1 0 0 14 440 397 448 ?443 343 449 5 444 +0 0 346 443 21 50 447 423 0 34
1 342 444 0 +.0103 199999999999853e-20 .035 1 0 1734723475976805e-31 17347234759
76805e-31 0 -1 14 341 410 450 ?330 443 451 5 447 +0 0 443 330 21 50 342 424 0 33
0 452 447 0 +.0033 199999999999853e-20 .035 0 0 1 1 0 0 50 452 523 0 346 453 342
 0 +.0757 199999999999853e-20 .095 0 0 1 1 0 0 14 346 512 454 ?333 338 27 5 452
 +0 0 338 440 21 50 453 524 0 338 339 452 0 +.0827 199999999999853e-20 .095 1 0
 0 0 0 -1 14 338 508 455 ?346 168 456 5 453 +0 0 168 346 21 50 339 525 0 168 332
 453 0 +.0757 199999999999853e-20 .075 0 0 -1 -1 0 0 81 1 455 1331 334 338 457 0
 454 458 459 15 456 818 0 460 338 461 17 460 0 456 460 460 0 310 309 0 0 -15 461
 811 0 462 338 463 17 462 0 461 462 462 0 307 305 0 0 -15 463 511 0 169 338 0 17
 169 0 463 32 172 123 147 163 0 464 -17 32 0 463 30 169 11 464 201 0 465 +17 172
 0 463 169 30 145 171 173 0 0 -17 464 0 423 162 465 123 32 201 0 0 -15 423 448 0
 162 405 403 17 162 0 423 159 464 126 125 199 0 0 -17 465 0 423 464 159 11 28 16
4 0 0 -17 159 0 423 465 162 121 128 160 0 0 -17 28 0 27 142 25 121 465 164 0 155
 +15 27 515 0 25 346 0 17 142 0 27 29 28 140 155 206 0 175 +17 155 0 150 128 151
 121 142 206 0 159 -17 29 0 27 25 142 143 175 177 0 0 -17 125 0 161 147 152 123
 162 199 0 169 +17 30 0 463 172 32 143 25 31 0 171 +17 171 0 170 175 166 143 172
 173 0 29 +17 307 0 327 307 307 0 462 305 0 0 +15 327 974 0 307 326 0 14 326 970
 458 ?466 176 324 5 467 -0 0 466 176 21 81 1 458 1332 334 326 468 0 455 469 470
 14 466 940 469 ?471 326 320 5 472 -0 0 471 326 21 14 176 733 473 ?326 333 170 5
 474 +0 0 326 333 21 51 255 467 989 0 326 472 474 0 +.085 -.03815 .09 -1 0 -1734
723475976805e-31 .002 -1734723475976805e-31 0 1 51 472 992 0 466 475 467 0 +.085
 -.03815 .08 -1 0 -1734723475976805e-31 .002 -1734723475976805e-31 0 1 50 474 74
6 0 176 467 344 0 +0 -.0445 0 0 -1 0 0 0 -1 50 344 646 0 333 474 332 0 +0 -.0445
 0 0 -1 0 0 0 -1 51 475 995 0 471 476 472 0 +.085 -.03815 .03 -1 0 -173472347597
6805e-31 .002 -1734723475976805e-31 0 1 14 471 910 477 ?478 466 479 5 475 -0 0 4
78 466 21 51 476 998 0 478 0 475 0 +.085 -.03815 .02 -1 0 -1734723475976805e-31
 .002 -1734723475976805e-31 0 1 14 478 880 480 ?0 471 481 5 476 -0 0 0 471 21 81
 1 480 1336 334 478 482 0 477 0 483 15 481 883 0 180 478 484 17 180 0 481 180 18
0 0 485 178 0 0 +15 484 884 0 486 478 0 17 486 0 484 486 486 0 487 18 0 0 +17 48
7 0 451 487 487 0 486 18 0 0 -16 18 866 0 ?486 178 314 7 0 0 1 15 451 844 0 487
 341 488 15 488 837 0 316 341 489 17 316 0 488 316 316 0 313 312 0 0 -15 489 413
 0 490 341 0 17 490 0 489 40 491 116 136 212 0 419 -17 40 0 489 38 490 26 419 21
7 0 492 +17 491 0 489 490 38 134 194 192 0 0 -17 136 0 449 493 118 134 490 212 0
 191 +17 419 0 413 494 492 116 40 217 0 0 -17 494 0 413 495 419 81 118 219 0 0 -
17 492 0 413 419 495 26 36 211 0 0 -17 495 0 413 492 494 119 115 221 0 0 -17 36
 0 35 131 33 119 492 211 0 496 +15 35 417 0 33 330 0 17 131 0 35 37 36 129 496 2
08 0 197 +17 496 0 497 115 498 119 131 208 0 495 -15 497 409 0 496 443 0 17 115
 0 497 139 496 81 495 221 0 499 +17 498 0 497 496 139 129 188 186 0 0 -17 139 0
 497 498 115 137 499 209 0 493 +17 188 0 347 191 197 137 498 186 0 0 +15 347 635
 0 188 333 0 17 191 0 347 194 188 134 493 189 0 491 +17 197 0 347 188 194 129 37
 195 0 498 +17 194 0 347 197 191 132 491 192 0 37 +17 37 0 35 33 131 132 197 195
 0 0 -17 493 0 449 499 136 137 191 189 0 188 -15 449 400 0 499 440 0 17 499 0 44
9 118 493 81 139 209 0 494 -17 118 0 449 136 499 116 494 219 0 490 +17 38 0 489
 491 40 132 33 39 0 194 +17 485 0 446 485 485 0 180 178 0 0 -15 446 857 0 485 44
3 500 15 500 851 0 501 443 497 17 501 0 500 501 501 0 317 314 0 0 -17 317 0 479
 317 317 0 501 314 0 0 +15 479 913 0 317 471 315 15 315 914 0 313 471 0 80 255 1
 334 502 503 9000 1 1 1 1 1 1 1 1 0 FFFFTFTFFFFFFF1 81 1 482 1242 504 478 0 480
 505 0 506 81 1 477 1335 334 471 505 0 473 480 507 82 255 1 483 -159448955 81 1
 505 1241 504 471 0 477 508 482 509 81 1 473 1334 334 176 510 0 469 477 511 82 1
 507 -155451259 81 1 510 1238 504 176 0 473 512 468 513 81 1 469 1333 334 466 50
8 0 458 473 514 82 1 511 345505918 81 1 508 1240 504 466 0 469 468 505 515 82 1
 514 -151519099 80 1 504 0 516 8001 0 0 0 0 3 5 0 0 0 FFFFTFTFFFFFFF2 81 1 468 1
239 504 326 0 458 510 508 517 83 255 3 515 .792156862745098 .819607843137255 .93
3333333333333 83 3 517 .792156862745098 .819607843137255 .933333333333333 79 255
 15 516 SDL/TYSA_COLOUR81 1 512 1237 504 333 0 345 518 510 519 83 3 513 .7921568
62745098 .819607843137255 .933333333333333 81 1 345 1312 334 333 512 0 340 348 5
20 81 1 518 1236 504 346 0 454 457 512 521 83 3 519 .792156862745098 .8196078431
37255 .933333333333333 81 1 454 1330 334 346 518 0 450 455 522 81 1 457 1235 504
 338 0 455 523 518 524 83 3 521 .792156862745098 .819607843137255 .9333333333333
33 81 1 523 1234 504 168 0 336 335 457 525 83 3 524 .792156862745098 .8196078431
37255 .933333333333333 81 1 336 1310 334 168 523 0 329 340 526 81 1 335 1233 504
 156 0 329 527 523 528 83 3 525 .792156862745098 .819607843137255 .9333333333333
33 81 1 527 1232 504 330 0 340 529 335 530 83 3 528 .792156862745098 .8196078431
37255 .933333333333333 81 1 340 1311 334 330 527 0 336 345 531 81 1 529 1231 504
 341 0 450 532 527 533 83 3 530 .792156862745098 .819607843137255 .9333333333333
33 81 1 450 1329 334 341 529 0 448 454 534 81 1 532 1230 504 443 0 445 535 529 5
36 83 3 533 .792156862745098 .819607843137255 .933333333333333 81 1 445 1327 334
 443 532 0 442 448 537 81 1 535 1229 504 440 0 448 538 532 539 83 3 536 .7921568
62745098 .819607843137255 .933333333333333 81 1 448 1328 334 440 535 0 445 450 5
40 81 1 538 1228 504 343 0 439 541 535 542 83 3 539 .792156862745098 .8196078431
37255 .933333333333333 81 1 439 1325 334 343 538 0 437 442 543 81 1 541 1227 504
 368 0 442 544 538 545 83 3 542 .792156862745098 .819607843137255 .9333333333333
33 81 1 442 1326 334 368 541 0 439 445 546 81 1 544 1226 504 373 0 437 547 541 5
48 83 3 545 .792156862745098 .819607843137255 .933333333333333 81 1 437 1324 334
 373 544 0 435 439 549 81 1 547 1225 504 375 0 435 550 544 551 83 3 548 .7921568
62745098 .819607843137255 .933333333333333 81 1 435 1323 334 375 547 0 433 437 5
52 81 1 550 1224 504 381 0 433 553 547 554 83 3 551 .792156862745098 .8196078431
37255 .933333333333333 81 1 433 1322 334 381 550 0 431 435 555 81 1 553 1223 504
 386 0 431 556 550 557 83 3 554 .792156862745098 .819607843137255 .9333333333333
33 81 1 431 1321 334 386 553 0 429 433 558 81 1 556 1222 504 390 0 429 559 553 5
60 83 3 557 .792156862745098 .819607843137255 .933333333333333 81 1 429 1320 334
 390 556 0 427 431 561 81 1 559 1221 504 396 0 427 562 556 563 83 3 560 .7921568
62745098 .819607843137255 .933333333333333 81 1 427 1319 334 396 559 0 425 429 5
64 81 1 562 1220 504 401 0 425 565 559 566 83 3 563 .792156862745098 .8196078431
37255 .933333333333333 81 1 425 1318 334 401 562 0 422 427 567 81 1 565 1219 504
 405 0 422 568 562 569 83 3 566 .792156862745098 .819607843137255 .9333333333333
33 81 1 422 1317 334 405 565 0 416 425 570 81 1 568 1218 504 408 0 416 415 565 5
71 83 3 569 .792156862745098 .819607843137255 .933333333333333 81 1 416 1316 334
 408 568 0 412 422 572 81 1 415 1217 504 354 0 412 573 568 574 83 3 571 .7921568
62745098 .819607843137255 .933333333333333 81 1 573 1216 504 349 0 352 351 415 5
75 83 3 574 .792156862745098 .819607843137255 .933333333333333 81 1 352 1314 334
 349 573 0 348 412 576 81 1 351 1215 504 15 0 348 0 573 577 83 3 575 .7921568627
45098 .819607843137255 .933333333333333 83 3 577 .792156862745098 .8196078431372
55 .933333333333333 82 1 576 1398145129 82 1 572 1397620841 82 1 570 1397358715
 82 1 567 1397096553 82 1 564 1396834409 82 1 561 1396572265 82 1 558 1396310121
 82 1 555 1396047977 82 1 552 1395785833 82 1 549 1395523689 82 1 546 1377960041
 82 1 543 1393033321 82 1 540 242155646 82 1 537 243597445 82 1 534 240713861 82
 1 531 231800958 82 1 526 288751742 82 1 522 278593662 82 1 520 333774974 83 3 5
09 .792156862745098 .819607843137255 .933333333333333 83 3 506 .792156862745098
 .819607843137255 .933333333333333 79 14 503 SWEntUnchanged15 320 943 0 318 466
 578 15 578 944 0 310 466 0 17 310 0 578 310 310 0 460 309 0 0 +82 1 470 -147586
939 82 1 459 286654597 82 1 417 1397883003 82 1 353 1398407273 17 321 0 331 321
 321 0 318 311 0 0 -82 1 337 289538181 19 16 255 0 1 0 9 5 S0 74 4 CI16 index_ma
p_offset0 0 1 dCCZ20 14 3 0 0 480 2 482 0 0 0 0 0 0 0 0 0 0 0 0 0 0 0 0 0 80 2 1
2 579 580 8004 0 0 0 0 3 5 0 0 0 FFTFFFFFFFFFFF2 3 83 1 13 1 79 16 580 SDL/TYSA_
DENSITY1 0 
