**ABCDEFGHIJKLMNOPQRSTUVWXYZabcdefghijklmnopqrstuvwxyz**************************
**PARASOLID !"#$%&'()*+,-./:;<=>?@[\]^_`{|}~0123456789**************************
**PART1;
MC=AMD64;
MC_MODEL=Intel64 Family 6 Model 58 Stepping 9, GenuineIntel;
MC_ID=unknown;
OS=Windows_NT;
OS_RELEASE=unknown;
FRU=Parasolid Version 30.0, build 310,  6- 8-2018;
APPL=SOLIDWORKS 2018-2018211;
SITE=;
USER=unknown;
FORMAT=text;
GUISE=transmit;
KEY=LoadCell;
FILE=LoadCell.x_t;
DATE=Sun Dec  2 20:40:55 2018;
**PART2;
SCH=SCH_3000310_30000;
USFLD_SIZE=0;
**PART3;
**END_OF_HEADER*****************************************************************
T51 : TRANSMIT FILE created by modeller version 300031023 SCH_3000310_30000_1300
6205 0 12 33 CCCCCCI4 mesh1006 0 I8 polyline1008 0 CCCCCCCDI5 owner1040 0 CCCCCC
I13 boundary_mesh1006 0 I17 boundary_polyline1008 0 CCCA16 index_map_offset0 0 1
 dA9 index_map82 0 A17 node_id_index_map82 0 A20 schema_embedding_map82 0 A5 chi
ld12 0 A14 lowest_node_id0 0 1 dZ1 540 0 2 0 0 0 0 0 0 1e3 1e-8 0 3 0 1 0 1 1 4
 5 6 7 0 0 8 9 10 0 0 0 0 0 0 70 11 CI9 list_type0 0 1 uI10 notransmit0 0 1 lCCC
DCCDI12 finger_index0 0 1 dI12 finger_block1012 0 CZ2 0 4 T1 0 0 2 20 1 11 11 13
 255 4 94 0 1 0 12 0 0 13 0 50 255 5 89 0 12 14 0 0 +0 .08 0 1 0 -12246467991473
52e-31 -1224646799147352e-31 0 -1 30 255 6 93 0 9 15 0 0 +155530143491714e-32 .0
8 .0127 0 -1 0 29 255 7 149 0 10 16 0 -530287619362453e-33 .04 .0020198729810778
05 19 8 CCCCCCCA5 owner12 0 Z8 28 0 1 13 0 17 V0 16 255 9 77 0 ?18 0 19 6 0 0 1
 18 255 10 147 0 20 0 21 7 ?1 17 255 20 0 22 23 24 10 25 26 0 27 -18 21 135 0 28
 10 29 16 ?1 17 28 0 30 31 25 21 32 33 0 34 +18 29 25 0 35 21 36 37 ?1 29 16 137
 0 21 38 7 .0127 .04 .01068012701892218 29 38 70 0 39 40 16 0 0 0 18 39 61 0 41
 42 43 38 ?1 29 40 71 0 43 44 38 .0127 0 0 18 43 62 0 45 39 46 40 ?1 29 44 72 0
 46 47 40 .0127 0 .0127 18 46 63 0 48 43 49 44 ?1 29 47 73 0 49 37 44 1555301434
91714e-32 0 .0127 18 49 64 0 50 46 51 47 ?1 29 37 27 0 29 52 47 0 .08 0 29 52 24
 0 36 53 37 .0127 .08 0 18 36 22 0 54 29 55 52 ?1 29 53 21 0 55 56 52 .0127 .08
 .0127 18 55 19 0 57 36 42 53 ?1 29 56 18 0 42 58 53 155530143491714e-32 .08 .01
27 18 42 16 0 59 55 39 56 ?1 29 58 216 0 51 60 56 0 .04 .0106801270189222 18 51
 173 0 23 49 61 58 ?1 29 60 217 0 61 0 58 .0127 .04 .0020198729810778 18 61 175
 0 25 51 0 60 ?1 17 25 0 30 28 27 61 20 26 0 24 +15 255 30 182 0 25 62 0 17 27 0
 30 25 31 10 63 64 0 65 -16 26 158 0 ?25 66 67 68 0 0 1 17 24 0 22 20 34 61 69 7
0 0 32 +15 22 186 0 34 71 0 17 34 0 22 24 23 21 31 67 0 69 +17 69 0 72 32 32 21
 24 70 0 0 -16 70 170 0 ?24 67 33 73 0 0 1 17 32 0 72 69 69 61 28 33 0 0 -15 72
 133 0 69 74 75 16 33 167 0 ?28 70 76 77 0 0 1 16 76 285 0 ?78 33 79 80 0 0 1 31
 255 77 212 0 33 80 73 0 +.0127 .0425 .00635 1 0 -2731847993664265e-31 -27318479
93664265e-31 0 -1 .005 31 80 400 0 76 81 77 0 +.00635 .005 .0127 0 0 -1 -1 0 0 .
002 31 73 211 0 70 77 68 0 +.0127 .0375 .00635 1 0 -2731847993664265e-31 -273184
7993664265e-31 0 -1 .005 30 68 210 0 26 73 82 0 +-.0673 .04 .00201987298107782 1
 0 -2731847993664265e-31 30 82 209 0 67 68 83 0 +-.0673 .04 .0106801270189222 1
 0 -2731847993664265e-31 16 67 156 0 ?34 26 70 82 0 0 1 31 83 208 0 66 82 84 0 +
0 .0375 .00635 1 0 -1224646799147352e-31 -1224646799147352e-31 0 -1 .005 16 66 1
57 0 ?65 64 26 83 0 0 1 31 84 207 0 64 83 85 0 +0 .0425 .00635 1 0 -122464679914
7352e-31 -1224646799147352e-31 0 -1 .005 16 64 155 0 ?63 86 66 84 0 0 1 30 85 5
 0 87 84 88 0 +0 .08 0 1224646799147352e-31 0 1 16 87 4 0 ?89 90 91 85 0 0 1 30
 88 8 0 90 85 92 0 +155530143491714e-32 .08 .0127 1 0 0 16 90 7 0 ?57 93 87 88 0
 0 1 30 92 11 0 93 88 94 0 +.0127 .08 0 -2731847993664265e-31 0 -1 16 93 10 0 ?5
4 95 90 92 0 0 1 30 94 14 0 95 92 96 0 +0 .08 0 -1 0 0 16 95 13 0 ?35 97 93 94 0
 0 1 30 96 69 0 86 94 98 0 +0 0 0 1224646799147352e-31 0 1 16 86 57 0 ?99 100 64
 96 0 0 1 30 98 68 0 100 96 101 0 +155530143491714e-32 0 .0127 1 0 0 16 100 53 0
 ?48 102 86 98 0 0 1 30 101 67 0 102 98 103 0 +.0127 0 0 -2731847993664265e-31 0
 -1 16 102 49 0 ?45 91 100 101 0 0 1 30 103 66 0 91 101 104 0 +0 0 0 -1 0 0 16 9
1 45 0 ?41 87 102 103 0 0 1 30 104 90 0 97 103 105 0 +0 .08 0 0 -1 0 16 97 74 0
 ?106 107 95 104 0 0 1 30 105 91 0 107 104 15 0 +.0127 .08 0 0 -1 0 16 107 75 0
 ?108 19 97 105 0 0 1 30 15 92 0 19 105 6 0 +.0127 .08 .0127 0 -1 0 16 19 76 0 ?
109 9 107 15 0 0 1 17 109 0 75 45 110 46 111 19 0 112 +15 75 80 0 45 74 0 17 45
 0 75 113 109 43 112 102 0 108 +17 110 0 75 109 113 55 54 93 0 0 -17 111 0 114 5
9 48 55 109 19 0 110 -17 112 0 115 50 116 46 45 102 0 0 -15 115 44 0 117 118 0 1
7 50 0 115 117 112 49 48 100 0 18 -17 116 0 115 112 117 43 41 91 0 0 -17 117 0 1
15 116 50 39 99 86 0 0 -17 41 0 119 120 108 39 116 91 0 106 +15 119 78 0 41 121
 0 17 120 0 119 122 41 29 106 97 0 123 -17 108 0 119 41 122 43 113 107 0 116 +17
 106 0 124 99 123 39 120 97 0 117 +15 124 84 0 99 12 0 17 99 0 124 125 106 49 11
7 86 0 0 +17 123 0 124 106 125 29 89 87 0 0 -17 125 0 124 123 99 42 18 9 0 0 -17
 89 0 126 57 35 42 123 87 0 125 +15 126 3 0 89 127 0 17 57 0 126 54 89 55 59 90
 0 111 +17 35 0 126 89 54 29 122 95 0 120 +17 54 0 126 35 57 36 110 93 0 113 +17
 122 0 119 108 120 36 35 95 0 0 -17 113 0 75 110 45 36 108 107 0 122 -17 59 0 11
4 18 111 42 57 90 0 89 -15 114 82 0 48 128 0 17 18 0 114 48 59 49 125 9 0 99 +17
 48 0 114 111 18 46 50 100 0 109 +14 255 128 83 129 ?74 12 130 4 14 -0 0 74 12 1
7 81 255 1 129 529 131 128 132 0 0 133 134 14 74 81 133 ?121 128 72 4 135 -0 0 1
21 128 17 14 12 85 136 ?128 0 137 4 5 -0 0 128 0 17 15 130 280 0 78 128 138 50 1
4 88 0 128 135 5 0 +155530143491714e-32 .08 .0127 0 0 -1 -1 0 0 13 17 29 0 0 0 0
 0 0 8 12 50 135 87 0 74 139 14 0 +.0127 .08 0 -1 0 2731847993664265e-31 2731847
993664265e-31 0 1 50 139 86 0 121 140 135 0 +0 .08 0 0 0 1 1 0 0 14 121 79 141 ?
127 74 142 4 139 -0 0 127 74 17 50 140 65 0 118 143 139 0 +0 0 0 0 1 0 0 0 1 14
 118 43 144 ?62 127 115 4 140 -0 0 62 127 17 50 143 2 0 127 145 140 0 +0 .08 0 0
 1 0 0 0 1 14 127 1 146 ?118 121 126 4 143 +0 0 118 121 17 51 255 145 203 0 62 1
47 143 0 +-.0673 .0425 .00635 1 0 -2731847993664265e-31 .005 -2731847993664265e-
31 0 -1 14 62 179 148 ?71 118 30 4 145 -0 0 71 118 17 51 147 204 0 71 149 145 0
 +-.0673 .0375 .00635 1 0 -2731847993664265e-31 .005 -2731847993664265e-31 0 -1
 14 71 183 150 ?151 62 22 4 147 -0 0 151 62 17 51 149 388 0 152 153 147 0 +.0063
5 .075 .08 0 0 -1 .002 -1 0 0 14 152 340 154 ?155 151 156 4 149 -0 0 155 151 17
 51 153 391 0 151 157 149 0 +.00635 .015 .08 0 0 -1 .002 -1 0 0 14 151 364 158 ?
152 71 159 4 153 -0 0 152 71 17 51 157 394 0 155 160 153 0 +.00635 .065 .08 0 0
 -1 .002 -1 0 0 14 155 316 161 ?162 152 163 4 157 -0 0 162 152 17 51 160 397 0 1
62 0 157 0 +.00635 .005 .08 0 0 -1 .002 -1 0 0 14 162 292 164 ?0 155 165 4 160 -
0 0 0 155 17 81 1 164 540 131 162 166 0 161 0 167 15 165 295 0 168 162 169 17 16
8 0 165 168 168 0 170 171 0 0 +15 169 296 0 172 162 0 17 172 0 169 172 172 0 78
 76 0 0 -17 78 0 130 78 78 0 172 76 0 0 +17 170 0 142 170 170 0 168 171 0 0 -16
 171 289 0 ?168 173 174 175 0 0 1 16 173 357 0 ?176 177 171 178 0 0 1 16 174 361
 0 ?179 171 180 181 0 0 1 31 175 410 0 171 0 182 0 +.00635 .005 0 0 0 -1 -1 0 0
 .002 31 182 408 0 183 175 181 0 +.00635 .065 0 0 0 -1 -1 0 0 .002 16 183 313 0
 ?184 180 0 182 0 0 1 31 181 406 0 174 182 185 0 +.00635 .015 0 0 0 -1 -1 0 0 .0
02 31 185 404 0 180 181 178 0 +.00635 .075 0 0 0 -1 -1 0 0 .002 16 180 337 0 ?18
6 174 183 185 0 0 1 31 178 403 0 173 185 187 0 +.00635 .015 .0127 0 0 -1 -1 0 0
 .002 31 187 402 0 177 178 81 0 +.00635 .075 .0127 0 0 -1 -1 0 0 .002 16 177 333
 0 ?188 79 173 187 0 0 1 31 81 401 0 79 187 80 0 +.00635 .065 .0127 0 0 -1 -1 0
 0 .002 16 79 309 0 ?189 76 177 81 0 0 1 17 189 0 138 189 189 0 190 79 0 0 +15 1
38 275 0 189 128 191 17 190 0 192 190 190 0 189 79 0 0 -15 192 320 0 190 155 0 1
5 191 270 0 188 128 193 17 188 0 191 188 188 0 194 177 0 0 +15 193 265 0 176 128
 114 17 176 0 193 176 176 0 195 173 0 0 +17 195 0 196 195 195 0 176 173 0 0 -15
 196 368 0 195 151 0 17 194 0 197 194 194 0 188 177 0 0 -15 197 344 0 194 152 0
 17 186 0 156 186 186 0 198 180 0 0 +15 156 343 0 186 152 197 17 198 0 199 198 1
98 0 186 180 0 0 -15 199 247 0 198 121 200 15 200 241 0 201 121 119 17 201 0 200
 201 201 0 179 174 0 0 -17 179 0 159 179 179 0 201 174 0 0 +15 159 367 0 179 151
 196 17 184 0 163 184 184 0 202 183 0 0 +15 163 319 0 184 155 192 17 202 0 203 2
02 202 0 184 183 0 0 -15 203 253 0 202 121 199 15 142 259 0 170 121 203 80 255 1
 131 204 205 9000 1 1 1 1 1 1 1 1 0 FFFFTFTFFFFFFF1 81 1 166 502 206 162 0 164 2
07 0 208 81 1 161 539 131 155 207 0 158 164 209 82 255 1 167 -251330449 81 1 207
 501 206 155 0 161 210 166 211 81 1 158 538 131 151 212 0 154 161 213 82 1 209 -
251920273 81 1 212 499 206 151 0 158 214 210 215 81 1 154 537 131 152 210 0 150
 158 216 82 1 213 -253099921 81 1 210 500 206 152 0 154 212 207 217 81 1 150 536
 131 71 214 0 148 154 218 82 1 216 -252510097 81 1 214 498 206 71 0 150 219 212
 220 81 1 148 535 131 62 219 0 146 150 221 82 1 218 -776404884 81 1 219 497 206
 62 0 148 222 214 223 81 1 146 534 131 127 224 0 144 148 225 82 1 221 -775880596
 81 1 224 495 206 127 0 146 226 222 227 81 1 144 533 131 118 222 0 141 146 228 8
2 1 225 199557224 81 1 222 496 206 118 0 144 224 219 229 81 1 141 532 131 121 22
6 0 136 144 230 82 1 228 205193320 81 1 226 494 206 121 0 141 231 224 232 81 1 1
36 531 131 12 233 0 133 141 234 82 1 230 206110831 81 1 233 491 206 12 0 136 0 1
32 235 81 1 133 530 131 74 231 0 129 136 236 82 1 234 206897260 81 1 231 493 206
 74 0 133 132 226 237 82 1 236 206372972 80 1 206 0 238 8001 0 0 0 0 3 5 0 0 0 F
FFFTFTFFFFFFF2 81 1 132 492 206 128 0 129 233 231 239 83 255 3 237 .792156862745
098 .819607843137255 .933333333333333 83 3 239 .792156862745098 .819607843137255
 .933333333333333 79 255 15 238 SDL/TYSA_COLOUR83 3 235 .792156862745098 .819607
843137255 .933333333333333 83 3 232 .792156862745098 .819607843137255 .933333333
333333 83 3 229 .792156862745098 .819607843137255 .933333333333333 83 3 227 .792
156862745098 .819607843137255 .933333333333333 83 3 223 .792156862745098 .819607
843137255 .933333333333333 83 3 220 .792156862745098 .819607843137255 .933333333
333333 83 3 217 .792156862745098 .819607843137255 .933333333333333 83 3 215 .792
156862745098 .819607843137255 .933333333333333 83 3 211 .792156862745098 .819607
843137255 .933333333333333 83 3 208 .792156862745098 .819607843137255 .933333333
333333 79 14 205 SWEntUnchanged15 137 145 0 65 12 124 17 65 0 137 63 63 10 23 66
 0 0 +17 63 0 137 65 65 51 27 64 0 0 +17 23 0 22 34 20 51 65 66 0 31 -17 31 0 30
 27 28 51 34 67 0 63 -82 1 134 206635119 19 13 95 0 1 0 8 4 S0 74 4 CI16 index_m
ap_offset0 0 1 dCCZ20 11 2 0 0 164 166 0 0 0 0 0 0 0 0 0 0 0 0 0 0 0 0 0 0 1 0 
