**ABCDEFGHIJKLMNOPQRSTUVWXYZabcdefghijklmnopqrstuvwxyz**************************
**PARASOLID !"#$%&'()*+,-./:;<=>?@[\]^_`{|}~0123456789**************************
**PART1;
MC=AMD64;
MC_MODEL=Intel64 Family 6 Model 58 Stepping 9, GenuineIntel;
MC_ID=unknown;
OS=Windows_NT;
OS_RELEASE=unknown;
FRU=Parasolid Version 30.0, build 310,  6- 8-2018;
APPL=SOLIDWORKS 2018-2018211;
SITE=;
USER=unknown;
FORMAT=text;
GUISE=transmit;
KEY=pitch;
FILE=pitch.x_t;
DATE=Sun Dec  2 20:40:12 2018;
**PART2;
SCH=SCH_3000310_30000;
USFLD_SIZE=0;
**PART3;
**END_OF_HEADER*****************************************************************
T51 : TRANSMIT FILE created by modeller version 300031023 SCH_3000310_30000_1300
6205 0 12 33 CCCCCCI4 mesh1006 0 I8 polyline1008 0 CCCCCCCDI5 owner1040 0 CCCCCC
I13 boundary_mesh1006 0 I17 boundary_polyline1008 0 CCCA16 index_map_offset0 0 1
 dA9 index_map82 0 A17 node_id_index_map82 0 A20 schema_embedding_map82 0 A5 chi
ld12 0 A14 lowest_node_id0 0 1 dZ1 1458 2 3 0 0 0 0 0 0 1e3 1e-8 0 4 0 1 0 1 1 5
 6 7 8 0 0 9 10 11 0 0 0 0 0 0 81 255 2 2 1240 12 1 0 0 0 0 13 0 70 11 CI9 list_
type0 0 1 uI10 notransmit0 0 1 lCCCDCCDI12 finger_index0 0 1 dI12 finger_block10
12 0 CZ3 0 4 T1 0 0 3 20 1 14 14 13 255 5 94 0 1 0 15 0 0 16 0 50 255 6 89 0 15
 17 0 0 +0 .03 0 -1 0 0 0 0 1 30 255 7 892 0 10 18 0 0 +-374237677884063e-31 .00
72 -.04 1 578241158658937e-31 -693889390390723e-30 29 255 8 877 0 11 19 0 -.02 .
0072 -.04 19 8 CCCCCCCA5 owner12 0 Z9 28 0 1 16 0 20 V0 16 255 10 890 0 ?21 0 22
 7 0 0 1 18 255 11 875 0 23 0 24 8 ?1 17 255 23 0 25 21 26 11 27 28 0 29 -18 24
 312 0 30 11 31 19 ?1 17 30 0 32 33 34 24 35 36 0 37 +18 31 138 0 38 24 39 40 ?1
 29 19 314 0 24 40 8 -.0127 .03 -.06 29 40 140 0 31 41 19 -.0173 .03 56497039000
6646e-32 29 41 137 0 39 42 40 -.03 .03 -.02 18 39 135 0 43 31 44 41 ?1 29 42 27
 0 44 45 41 0 .03 0 18 44 25 0 46 39 47 42 ?1 29 45 21 0 47 48 42 -.03 .03 -.08
 18 47 19 0 49 44 50 45 ?1 29 48 270 0 51 52 45 -.0173 .03 -.02 18 51 205 0 53 5
4 55 48 ?1 29 52 273 0 50 56 48 -.03 .035 -.02 18 50 201 0 57 47 58 52 ?1 29 56
 274 0 58 59 52 -.0173 .035 -.02 18 58 200 0 60 50 61 56 ?1 29 59 275 0 61 62 56
 -.0173 .035 0 18 61 199 0 63 58 54 59 ?1 29 62 276 0 54 64 59 -.03 .035 9797174
39317882e-32 18 54 204 0 65 61 51 62 ?1 29 64 432 0 66 67 62 24492935982947e-31
 .03 -.06 18 66 369 0 33 68 69 64 ?1 29 67 434 0 69 70 64 -.0127 .03 -.08 18 69
 366 0 71 66 72 67 ?1 29 70 436 0 55 73 67 24492935982947e-31 .035 -.06 18 55 36
4 0 74 51 75 70 ?1 29 73 437 0 75 76 70 -.0127 .035 -.06 18 75 363 0 77 55 78 73
 ?1 29 76 438 0 78 79 73 -.0127 .035 -.08 18 78 362 0 80 75 68 76 ?1 29 79 439 0
 68 81 76 0 .035 -.08 18 68 367 0 82 78 66 79 ?1 29 81 841 0 83 84 79 -578241158
65894e-32 .02 -.08 18 83 771 0 85 86 87 81 ?1 29 84 842 0 87 88 81 -.02 .02 -.08
 18 87 773 0 89 83 90 84 ?1 29 88 845 0 72 91 84 17925475918427e-30 .02 -.04 18
 72 768 0 92 69 86 88 ?1 29 91 846 0 86 93 88 -.02 .02 -.04 18 86 770 0 94 72 83
 91 ?1 29 93 1171 0 90 95 91 -1850371707708595e-32 .0072 -.04 18 90 1015 0 21 87
 96 93 ?1 29 95 1172 0 96 97 93 -.02 .0072 -.08 18 96 1021 0 26 90 98 95 ?1 29 9
7 1177 0 99 100 95 -.03 .0072 -.08 18 99 1020 0 101 102 0 97 ?1 29 100 1180 0 98
 103 97 616297582203916e-47 .0072 1387778780781446e-32 18 98 1016 0 104 96 102 1
00 ?1 29 103 1181 0 102 0 100 -.03 .0072 277555756156289e-31 18 102 1012 0 105 9
8 99 103 ?1 17 105 0 25 101 104 102 106 107 0 108 -15 255 25 1042 0 21 109 0 17
 101 0 25 26 105 99 108 110 0 111 +17 104 0 25 105 21 98 112 113 0 106 -17 106 0
 114 115 116 98 105 107 0 117 +16 107 976 0 ?106 110 118 119 0 0 1 17 108 0 120
 65 121 102 101 110 0 116 -15 120 80 0 121 122 0 17 65 0 120 123 108 54 116 124
 0 125 -17 121 0 120 108 126 99 127 128 0 0 +16 110 996 0 ?101 113 107 129 0 0 1
 17 116 0 114 106 125 102 65 124 0 0 +15 114 78 0 116 130 0 17 125 0 114 116 131
 54 63 132 0 133 -16 124 75 0 ?116 128 134 135 0 0 1 16 128 76 0 ?121 22 124 136
 0 0 1 16 134 74 0 ?117 124 137 138 0 0 1 30 135 91 0 124 138 136 0 +-.03 .03 97
9717439317882e-32 0 -1 0 30 138 90 0 134 139 135 0 +0 .03 0 0 -1 0 30 136 92 0 1
28 135 140 0 +-.03 .03 -.08 0 -1 0 30 140 93 0 22 136 141 0 +0 .03 -.08 0 -1 0 1
6 22 77 0 ?142 10 128 140 0 0 1 31 255 141 687 0 143 140 144 0 +-.00635 .02 -.07
5 0 1 0 0 0 1 .002 16 143 737 0 ?145 146 147 141 0 0 1 31 144 881 0 148 141 18 0
 +-.0049 .0136 -.04 -693889390390723e-30 601853107621011e-46 -1 -1 0 69388939039
0723e-30 .002 16 148 1104 0 ?149 150 151 144 0 0 1 31 18 887 0 150 144 7 0 +-.01
49 .0136 -.04 -693889390390723e-30 601853107621011e-46 -1 -1 0 693889390390723e-
30 .002 16 150 1080 0 ?152 28 148 18 0 0 1 17 152 0 153 152 152 0 154 150 0 0 +1
6 28 975 0 ?27 155 150 156 0 0 1 17 27 0 157 89 158 96 23 28 0 159 +16 155 974 0
 ?160 161 28 162 0 0 1 30 156 1149 0 28 163 162 0 +-.02 .0072 -.04 -462592926927
149e-30 -547382212626882e-62 -1 31 163 1155 0 151 129 156 0 +-.0049 .0136 138777
8780781446e-32 -462592926927149e-30 0 -1 -1 0 462592926927149e-30 .002 31 162 11
48 0 155 156 164 0 +-.02365 .0072 -.015 -578241158658937e-31 1 267490270053783e-
46 -1 -578241158658937e-31 0 .002 31 164 1147 0 161 162 165 0 +-.02365 .0072 -.0
05 -578241158658937e-31 1 267490270053783e-46 -1 -578241158658937e-31 0 .002 16
 161 973 0 ?166 167 155 164 0 0 1 30 165 840 0 168 164 169 0 +17925475918427e-30
 .02 -.04 -867361737988404e-31 -1 0 16 168 740 0 ?170 171 172 165 0 0 1 30 169 8
38 0 171 165 173 0 +-.02 .02 -.04 1734723475976805e-31 1 0 16 171 876 0 ?94 174
 168 169 0 0 1 30 173 837 0 174 169 175 0 +17925475918427e-30 .02 -.04 1 0 -6938
89390390723e-30 16 174 744 0 ?176 177 171 173 0 0 1 30 175 834 0 167 173 178 0 +
-.02 .02 -.08 1734723475976805e-31 1 0 16 167 896 0 ?89 172 161 175 0 0 1 30 178
 833 0 172 175 179 0 +-57824115865894e-32 .02 -.08 1 0 -693889390390723e-30 16 1
72 765 0 ?85 168 167 178 0 0 1 30 179 832 0 147 178 180 0 +17925475918427e-30 .0
2 -.04 -462592926927149e-30 0 -1 16 147 747 0 ?181 143 177 179 0 0 1 30 180 831
 0 177 179 182 0 +-.02 .02 -.04 -462592926927149e-30 0 -1 16 177 751 0 ?183 147
 174 180 0 0 1 31 182 826 0 146 180 184 0 +-.00635 .02 -.065 0 1 0 0 0 1 .002 16
 146 736 0 ?185 186 143 182 0 0 1 31 184 431 0 186 182 187 0 +-.00635 .035 -.075
 0 1 0 0 0 1 .002 16 186 359 0 ?188 189 146 184 0 0 1 31 187 429 0 189 184 190 0
 +-.00635 .035 -.065 0 1 0 0 0 1 .002 16 189 356 0 ?191 192 186 187 0 0 1 30 190
 427 0 193 187 194 0 +0 .035 -.08 -122464679914735e-30 0 -1 16 193 322 0 ?195 19
6 197 190 0 0 1 30 194 426 0 196 190 198 0 +0 .035 -.08 -1 0 218547839493141e-29
 16 196 325 0 ?80 199 193 194 0 0 1 30 198 425 0 199 194 200 0 +-.0127 .035 -.08
 0 0 1 16 199 328 0 ?77 201 196 198 0 0 1 30 200 424 0 201 198 202 0 +2449293598
2947e-31 .035 -.06 1 0 0 16 201 331 0 ?74 203 199 200 0 0 1 30 202 421 0 192 200
 204 0 +-.0127 .03 -.08 0 0 1 16 192 348 0 ?37 197 189 202 0 0 1 30 204 420 0 19
7 202 205 0 +24492935982947e-31 .03 -.06 1 0 0 16 197 352 0 ?33 193 192 204 0 0
 1 30 205 419 0 203 204 206 0 +24492935982947e-31 .035 -.06 0 -1 0 16 203 343 0
 ?207 36 201 205 0 0 1 30 206 418 0 36 205 208 0 +-.0127 .035 -.06 0 -1 0 16 36
 355 0 ?30 209 203 206 0 0 1 30 208 417 0 209 206 210 0 +-.0127 .035 -.08 0 -1 0
 16 209 351 0 ?71 211 36 208 0 0 1 31 210 268 0 211 208 212 0 +-.02365 .035 -.01
5 0 1 0 0 0 1 .002 16 211 196 0 ?213 214 209 210 0 0 1 31 212 266 0 214 210 215
 0 +-.02365 .035 -.005 0 1 0 0 0 1 .002 16 214 193 0 ?216 217 211 212 0 0 1 30 2
15 264 0 218 212 219 0 +-.03 .035 979717439317882e-32 0 0 1 16 218 159 0 ?133 13
2 220 215 0 0 1 30 219 263 0 132 215 221 0 +-.03 .035 979717439317882e-32 1 0 -7
7143105458101e-29 16 132 162 0 ?63 222 218 219 0 0 1 30 221 262 0 222 219 223 0
 +-.0173 .035 0 0 0 -1 16 222 165 0 ?60 224 132 221 0 0 1 30 223 261 0 224 221 2
25 0 +-.03 .035 -.02 -1 0 0 16 224 168 0 ?57 226 222 223 0 0 1 30 225 258 0 217
 223 227 0 +-.0173 .03 0 0 0 -1 16 217 185 0 ?228 220 214 225 0 0 1 30 227 257 0
 220 225 229 0 +-.03 .03 -.02 -1 0 0 16 220 189 0 ?230 218 217 227 0 0 1 30 229
 256 0 226 227 231 0 +-.03 .035 -.02 0 -1 0 16 226 180 0 ?232 233 224 229 0 0 1
 30 231 255 0 233 229 234 0 +-.0173 .035 -.02 0 -1 0 16 233 192 0 ?235 236 226 2
31 0 0 1 30 234 254 0 236 231 237 0 +-.0173 .035 0 0 -1 0 16 236 188 0 ?238 239
 233 234 0 0 1 30 237 5 0 239 234 240 0 +0 .03 0 0 0 -1 16 239 4 0 ?241 242 236
 237 0 0 1 30 240 8 0 242 237 243 0 +0 .03 -.08 -1 0 462592926927149e-30 16 242
 298 0 ?49 244 239 240 0 0 1 30 243 11 0 244 240 139 0 +-.03 .03 979717439317882
e-32 0 0 1 16 244 10 0 ?43 137 242 243 0 0 1 30 139 14 0 137 243 138 0 +0 .03 0
 1 0 -3265724797726275e-31 16 137 139 0 ?46 134 244 139 0 0 1 17 46 0 245 241 38
 44 246 137 0 115 +15 245 150 0 247 248 0 17 241 0 245 247 46 66 249 239 0 0 +17
 38 0 245 46 53 31 228 217 0 246 -17 246 0 114 131 115 31 46 137 0 238 -17 115 0
 114 246 106 44 117 134 0 249 -17 117 0 250 112 249 98 115 134 0 0 +17 249 0 250
 117 207 44 241 239 0 0 -15 250 84 0 117 15 0 17 207 0 250 249 251 66 252 203 0
 241 +17 251 0 250 207 82 55 195 193 0 0 -17 252 0 32 34 33 55 207 203 0 251 -15
 32 395 0 33 253 0 17 34 0 32 30 252 75 74 201 0 0 -17 33 0 32 252 30 66 247 197
 0 207 +17 247 0 245 254 241 24 33 197 0 0 -17 254 0 245 49 247 69 37 192 0 255
 -17 49 0 245 43 254 47 255 242 0 127 +17 37 0 256 35 71 24 254 192 0 247 +17 25
5 0 257 258 127 69 49 242 0 0 -15 257 82 0 159 259 0 17 258 0 257 260 255 78 71
 209 0 261 -17 127 0 257 255 111 47 121 128 0 126 -17 111 0 257 127 159 99 26 11
8 0 121 -17 126 0 120 121 232 47 43 244 0 0 -17 232 0 120 126 123 39 262 226 0 0
 +17 43 0 245 53 49 39 126 244 0 230 +17 53 0 245 38 43 51 230 220 0 228 -17 230
 0 263 262 235 39 53 220 0 232 +15 263 232 0 230 264 0 17 262 0 263 265 230 50 2
32 226 0 123 -17 235 0 263 230 265 51 266 233 0 0 +17 265 0 263 235 262 58 57 22
4 0 0 -17 266 0 267 268 228 58 235 233 0 265 -15 267 228 0 228 269 0 17 268 0 26
7 238 266 61 60 222 0 0 -17 228 0 267 266 238 51 38 217 0 235 +17 238 0 267 228
 268 31 131 236 0 0 +17 131 0 114 125 246 61 238 236 0 268 -17 60 0 270 57 63 58
 268 222 0 266 +15 270 209 0 133 271 272 17 57 0 270 133 60 50 265 224 0 262 +17
 63 0 270 60 133 61 125 132 0 131 +17 133 0 270 63 57 54 123 218 0 0 +17 123 0 1
20 232 65 50 133 218 0 0 -14 255 271 207 273 ?269 248 270 5 274 -0 0 269 248 20
 15 272 210 0 275 271 276 17 275 0 272 275 275 0 216 214 0 0 -15 276 211 0 277 2
71 0 17 277 0 276 277 277 0 213 211 0 0 -17 213 0 278 213 213 0 277 211 0 0 +15
 278 241 0 213 279 0 14 279 238 280 ?281 282 283 5 284 +0 0 281 282 20 81 1 280
 1439 285 279 286 0 273 287 288 14 281 370 287 ?289 279 290 5 291 -0 0 289 279 2
0 14 282 233 292 ?279 264 293 5 294 +0 0 279 264 20 15 283 904 0 295 279 278 51
 255 284 252 0 279 296 294 0 --.02365 .035 -.015 0 -1 0 .002 0 0 -1 13 20 29 0 0
 0 0 0 0 9 15 14 15 85 297 ?259 0 250 5 6 -0 0 259 0 20 81 1 297 1442 285 15 298
 0 292 299 300 14 259 83 299 ?122 15 257 5 17 -0 0 122 15 20 81 1 299 1443 285 2
59 301 0 297 302 303 14 122 81 302 ?130 259 120 5 304 -0 0 130 259 20 50 17 88 0
 259 304 6 0 +0 .03 -.08 462592926927149e-30 0 1 1 0 -462592926927149e-30 50 304
 87 0 122 305 17 0 +-.03 .03 979717439317882e-32 1 0 0 0 0 -1 50 305 86 0 130 30
6 304 0 +0 .03 0 -3265724797726275e-31 0 -1 -1 0 3265724797726275e-31 14 130 79
 307 ?248 122 308 5 305 -0 0 248 122 20 50 306 2 0 248 309 305 0 +0 .03 0 0 1 0
 0 0 1 14 248 1 310 ?271 130 245 5 306 +0 0 271 130 20 50 309 247 0 269 311 306
 0 +-.0173 .035 0 -1 0 0 0 0 1 14 269 225 312 ?264 271 267 5 309 -0 0 264 271 20
 50 311 248 0 264 274 309 0 +-.03 .035 -.02 0 0 1 1 0 0 14 264 229 313 ?282 269
 263 5 311 -0 0 282 269 20 50 274 250 0 271 294 311 0 +0 .035 0 0 -1 0 0 0 -1 51
 294 251 0 282 284 274 0 --.02365 .035 -.005 0 -1 0 .002 0 0 -1 81 1 313 1448 28
5 264 314 0 312 315 316 80 255 1 285 317 318 9000 1 1 1 1 1 1 1 1 0 FFFFTFTFFFFF
FF1 81 1 314 1372 319 264 0 313 320 321 322 81 1 312 1447 285 269 320 0 310 313
 323 81 1 315 1449 285 324 325 0 313 326 327 82 255 1 316 2013266039 14 324 802
 315 ?328 329 157 5 330 -0 0 328 329 20 81 1 325 1381 319 324 0 315 331 332 333
 81 1 326 1450 285 328 332 0 315 334 335 82 1 327 -1662582637 14 328 812 326 ?33
6 324 337 5 338 +0 0 336 324 20 81 1 332 1382 319 328 0 326 325 339 340 81 1 334
 1451 285 336 339 0 326 341 342 82 1 335 -1669267309 14 336 1116 334 ?343 328 34
4 5 345 -0 0 343 328 20 81 1 339 1383 319 336 0 334 332 346 347 81 1 341 1452 28
5 343 346 0 334 348 349 82 1 342 351535251 14 343 1092 341 ?109 336 153 5 350 -0
 0 109 336 20 81 1 346 1384 319 343 0 341 339 351 352 81 1 348 1453 285 109 351
 0 341 353 354 82 1 349 355532947 14 109 1037 348 ?0 343 355 5 356 -0 0 0 343 20
 81 1 351 1385 319 109 0 348 346 0 357 81 1 353 1454 285 329 331 0 348 358 359 8
2 1 354 376963219 14 329 796 353 ?324 360 361 5 362 -0 0 324 360 20 81 1 331 138
0 319 329 0 353 363 325 364 81 1 358 1455 285 360 363 0 353 365 366 82 1 359 -16
62713718 14 360 401 358 ?329 367 368 5 369 +0 0 329 367 20 81 1 363 1379 319 360
 0 358 370 331 371 81 1 365 1456 285 367 370 0 358 372 373 82 1 366 49676426 14
 367 396 365 ?360 253 374 5 375 +0 0 360 253 20 81 1 370 1378 319 367 0 365 376
 363 377 81 1 372 1457 285 253 376 0 365 378 379 82 1 373 49545354 14 253 392 37
2 ?367 289 32 5 380 -0 0 367 289 20 81 1 376 1377 319 253 0 372 381 370 382 81 1
 378 1458 285 289 381 0 372 0 383 82 1 379 2024996983 14 289 388 378 ?253 281 25
6 5 296 -0 0 253 281 20 81 1 381 1376 319 289 0 378 384 376 385 82 1 383 2025259
127 80 1 319 0 386 8001 0 0 0 0 3 5 0 0 0 FFFFTFTFFFFFFF2 81 1 384 1375 319 281
 0 287 286 381 387 83 255 3 385 .792156862745098 .819607843137255 .9333333333333
33 81 1 287 1440 285 281 384 0 280 292 388 81 1 286 1374 319 279 0 280 321 384 3
89 83 3 387 .792156862745098 .819607843137255 .933333333333333 81 1 321 1373 319
 282 0 292 314 286 390 83 3 389 .792156862745098 .819607843137255 .9333333333333
33 81 1 292 1441 285 282 321 0 287 297 391 83 3 390 .792156862745098 .8196078431
37255 .933333333333333 82 1 391 48890003 82 1 388 2048983159 79 255 15 386 SDL/T
YSA_COLOUR15 256 391 0 37 289 0 50 296 410 0 289 380 284 0 +-.0127 .035 -.08 1 0
 0 0 0 -1 50 380 411 0 253 291 296 0 +24492935982947e-31 .035 -.06 0 0 -1 -1 0 0
 50 291 413 0 281 375 380 0 +0 .035 0 0 -1 0 0 0 -1 51 375 414 0 367 369 291 0 -
-.00635 .035 -.065 0 -1 0 .002 0 0 -1 51 369 415 0 360 330 375 0 --.00635 .035 -
.075 0 -1 0 .002 0 0 -1 50 330 822 0 324 362 369 0 +-.02 .02 -.04 -1 17347234759
76805e-31 462592926927149e-30 462592926927149e-30 0 1 50 362 823 0 329 338 330 0
 +17925475918427e-30 .02 -.04 0 1 0 0 0 1 50 338 825 0 328 345 362 0 +-370074341
541719e-31 481482486096809e-47 -.04 -693889390390723e-30 601853107621011e-46 -1
 -1 0 693889390390723e-30 51 345 1133 0 336 356 338 0 +-.0049 .0136 138777878078
1446e-32 -462592926927149e-30 0 -1 .002 -1 0 462592926927149e-30 50 356 1139 0 1
09 350 345 0 +616297582203916e-47 .0072 1387778780781446e-32 -578241158658937e-3
1 1 267490270053783e-46 -1 -578241158658937e-31 0 51 350 1142 0 343 0 356 0 +-.0
149 .0136 1387778780781446e-32 -462592926927149e-30 0 -1 .002 -1 0 4625929269271
49e-30 83 3 382 .792156862745098 .819607843137255 .933333333333333 83 3 377 .792
156862745098 .819607843137255 .933333333333333 15 374 693 0 392 367 393 17 392 0
 374 392 392 0 185 146 0 0 -15 393 399 0 191 367 0 17 191 0 393 191 191 0 394 18
9 0 0 +17 394 0 395 394 394 0 191 189 0 0 -15 395 373 0 394 281 396 15 396 374 0
 397 281 0 17 397 0 396 397 397 0 188 186 0 0 -17 188 0 398 188 188 0 397 186 0
 0 +15 398 404 0 188 360 0 17 185 0 361 185 185 0 392 146 0 0 +15 361 799 0 185
 329 399 15 399 800 0 145 329 400 17 145 0 399 145 145 0 401 143 0 0 +15 400 801
 0 85 329 0 17 85 0 400 92 183 83 402 172 0 181 +17 92 0 400 403 85 72 181 147 0
 176 -17 183 0 400 85 403 87 404 177 0 402 +17 402 0 257 159 142 87 85 172 0 0 -
17 181 0 250 82 405 83 92 147 0 142 +17 82 0 250 251 181 68 142 22 0 260 -17 405
 0 250 181 112 72 170 168 0 0 -17 142 0 257 402 260 83 82 22 0 0 +17 260 0 257 1
42 258 68 80 196 0 195 -17 80 0 290 77 195 78 260 196 0 258 +17 195 0 290 80 74
 68 251 193 0 0 +15 290 372 0 195 281 395 17 74 0 290 195 77 55 34 201 0 252 +17
 77 0 290 74 80 75 261 199 0 35 +17 261 0 256 71 35 78 77 199 0 0 -17 35 0 256 2
61 37 75 30 36 0 34 -17 71 0 256 37 261 69 258 209 0 254 +17 112 0 250 405 117 9
0 104 113 0 170 +17 170 0 337 29 176 90 405 168 0 0 +15 337 891 0 29 328 406 17
 29 0 337 94 170 11 21 10 0 158 -17 176 0 337 170 94 72 403 174 0 405 +17 94 0 3
37 176 29 86 158 171 0 404 +17 403 0 400 183 92 86 176 174 0 0 -17 158 0 157 27
 404 11 94 171 0 0 -17 404 0 157 158 89 86 183 177 0 403 -15 157 805 0 158 324 0
 17 89 0 157 404 27 87 159 167 0 183 +17 159 0 257 111 402 96 89 167 0 0 -17 21
 0 25 104 23 90 29 10 0 112 +15 406 886 0 154 328 407 17 154 0 406 154 154 0 152
 150 0 0 -15 407 880 0 408 328 0 17 408 0 407 408 408 0 149 148 0 0 -17 149 0 34
4 149 149 0 408 148 0 0 +15 344 1119 0 149 336 409 15 409 1120 0 410 336 0 17 41
0 0 409 410 410 0 411 151 0 0 -17 411 0 412 411 411 0 410 151 0 0 +16 151 1105 0
 ?411 148 413 163 0 0 1 16 413 1081 0 ?414 151 113 415 0 0 1 17 414 0 308 414 41
4 0 416 413 0 0 +16 113 979 0 ?112 413 110 417 0 0 1 31 415 1169 0 413 0 119 0 +
-.0149 .0136 1387778780781446e-32 -462592926927149e-30 0 -1 -1 0 462592926927149
e-30 .002 30 119 1164 0 107 415 418 0 +616297582203916e-47 .0072 138777878078144
6e-32 1 578241158658937e-31 -462592926927149e-30 30 418 1160 0 118 119 417 0 +-3
70074341541719e-31 .0072 -.08 1 578241158658937e-31 -462592926927149e-30 16 118
 968 0 ?26 107 0 418 0 0 1 30 417 1159 0 113 418 129 0 +616297582203916e-47 .007
2 1387778780781446e-32 -462592926927149e-30 0 -1 30 129 1158 0 110 417 163 0 +-.
03 .0072 277555756156289e-31 -462592926927149e-30 0 -1 17 26 0 25 23 101 96 111
 118 0 27 +15 308 928 0 414 130 412 17 416 0 419 416 416 0 414 413 0 0 -15 419 1
096 0 416 343 0 15 412 921 0 411 130 114 17 401 0 368 401 401 0 145 143 0 0 -15
 368 686 0 401 360 398 83 3 371 .792156862745098 .819607843137255 .9333333333333
33 83 3 364 .792156862745098 .819607843137255 .933333333333333 83 3 357 .7921568
62745098 .819607843137255 .933333333333333 15 355 1040 0 166 109 420 17 166 0 35
5 166 166 0 421 161 0 0 +15 420 1041 0 160 109 25 17 160 0 420 160 160 0 295 155
 0 0 +17 295 0 283 295 295 0 160 155 0 0 -17 421 0 293 421 421 0 166 161 0 0 -15
 293 910 0 421 282 422 15 422 236 0 216 282 0 17 216 0 422 216 216 0 275 214 0 0
 +83 3 352 .792156862745098 .819607843137255 .933333333333333 15 153 1095 0 152
 343 419 83 3 347 .792156862745098 .819607843137255 .933333333333333 83 3 340 .7
92156862745098 .819607843137255 .933333333333333 83 3 333 .792156862745098 .8196
07843137255 .933333333333333 81 1 320 1371 319 269 0 312 423 314 424 81 1 310 14
46 285 248 425 0 307 312 426 82 1 323 2013528183 81 1 425 1369 319 248 0 310 427
 423 428 81 1 307 1445 285 130 427 0 302 310 429 82 1 426 1962147959 81 1 427 13
68 319 130 0 307 430 425 431 81 1 302 1444 285 122 430 0 299 307 432 82 1 429 48
103571 81 1 430 1367 319 122 0 302 301 427 433 82 1 432 47841427 81 1 301 1366 3
19 259 0 299 298 430 434 83 3 433 .792156862745098 .819607843137255 .93333333333
3333 81 1 298 1365 319 15 0 297 0 301 435 83 3 434 .792156862745098 .81960784313
7255 .933333333333333 83 3 435 .792156862745098 .819607843137255 .93333333333333
3 83 3 431 .792156862745098 .819607843137255 .933333333333333 81 1 423 1370 319
 271 0 273 425 320 436 83 3 428 .792156862745098 .819607843137255 .9333333333333
33 81 1 273 1438 285 271 423 0 0 280 437 83 3 436 .792156862745098 .819607843137
255 .933333333333333 82 1 437 2046296183 83 3 424 .792156862745098 .819607843137
255 .933333333333333 83 3 322 .792156862745098 .819607843137255 .933333333333333
 79 14 318 SWEntUnchanged82 1 303 47710355 82 1 300 47579283 82 1 288 49021075 1
9 16 95 0 1 0 9 5 S0 74 4 CI16 index_map_offset0 0 1 dCCZ20 14 3 0 0 378 2 351 0
 0 0 0 0 0 0 0 0 0 0 0 0 0 0 0 0 80 2 12 438 439 8004 0 0 0 0 3 5 0 0 0 FFTFFFFF
FFFFFF2 3 83 1 13 1 79 16 439 SDL/TYSA_DENSITY1 0 
