**ABCDEFGHIJKLMNOPQRSTUVWXYZabcdefghijklmnopqrstuvwxyz**************************
**PARASOLID !"#$%&'()*+,-./:;<=>?@[\]^_`{|}~0123456789**************************
**PART1;
MC=AMD64;
MC_MODEL=Intel64 Family 6 Model 58 Stepping 9, GenuineIntel;
MC_ID=unknown;
OS=Windows_NT;
OS_RELEASE=unknown;
FRU=Parasolid Version 30.0, build 310,  6- 8-2018;
APPL=SOLIDWORKS 2018-2018211;
SITE=;
USER=unknown;
FORMAT=text;
GUISE=transmit;
KEY=yaw;
FILE=yaw.x_t;
DATE=Sun Dec  2 20:42:45 2018;
**PART2;
SCH=SCH_3000310_30000;
USFLD_SIZE=0;
**PART3;
**END_OF_HEADER*****************************************************************
T51 : TRANSMIT FILE created by modeller version 300031023 SCH_3000310_30000_1300
6205 0 12 33 CCCCCCI4 mesh1006 0 I8 polyline1008 0 CCCCCCCDI5 owner1040 0 CCCCCC
I13 boundary_mesh1006 0 I17 boundary_polyline1008 0 CCCA16 index_map_offset0 0 1
 dA9 index_map82 0 A17 node_id_index_map82 0 A20 schema_embedding_map82 0 A5 chi
ld12 0 A14 lowest_node_id0 0 1 dZ1 3012 2 3 0 0 0 0 0 0 1e3 1e-8 0 4 0 1 0 1 1 5
 6 7 8 0 0 9 10 11 0 0 0 0 0 0 81 255 2 2 2526 12 1 0 0 0 0 13 0 70 11 CI9 list_
type0 0 1 uI10 notransmit0 0 1 lCCCDCCDI12 finger_index0 0 1 dI12 finger_block10
12 0 CZ3 0 4 T1 0 0 3 20 1 14 14 13 255 5 94 0 1 0 15 0 0 16 0 50 255 6 89 0 17
 18 0 0 +0 .0127 0 -1 0 -1878241825980285e-48 -1878241825980285e-48 0 1 31 255 7
 496 0 19 20 0 0 --.015 .00635 -.055 -2312964634635745e-31 0 -1 -1 0 23129646346
35745e-31 .002 29 255 8 2301 0 11 21 0 -.06 0 -.025 19 8 CCCCCCCA5 owner12 0 Z9
 28 0 1 16 0 22 V0 16 255 10 2000 0 ?23 0 24 25 0 0 1 18 255 11 2299 0 26 0 27 8
 ?1 17 255 26 0 28 29 30 11 31 32 0 33 +18 27 2156 0 34 11 35 21 ?1 17 34 0 36 3
7 38 27 39 40 0 41 -18 35 2153 0 42 27 43 44 ?1 29 21 2158 0 27 44 8 79449629238
966e-48 0 -.0423 29 44 2155 0 35 45 21 -.02 0 -.055 29 45 1977 0 43 46 44 -.06 .
0127 -.06 18 43 1975 0 47 35 48 45 ?1 29 46 1799 0 48 49 45 -.02 .0127 -.02 18 4
8 1797 0 50 43 51 46 ?1 29 49 1426 0 51 52 46 -.003 .00635 -.04865 18 51 1423 0
 53 48 54 49 ?1 29 52 1412 0 54 55 49 -.003 .00635 -.03135 18 54 1409 0 56 51 57
 52 ?1 29 55 1398 0 57 58 52 -.013 .00635 -.04865 18 57 1395 0 59 54 60 55 ?1 29
 58 1384 0 60 61 55 -.013 .00635 -.03135 18 60 1381 0 62 57 63 58 ?1 29 61 1370
 0 63 64 58 -.063 .00635 -.03135 18 63 1367 0 65 60 66 61 ?1 29 64 1356 0 66 67
 61 -.063 .00635 -.04865 18 66 1353 0 68 63 69 64 ?1 29 67 1342 0 69 70 64 -.073
 .00635 -.03135 18 69 1339 0 71 66 72 67 ?1 29 70 1328 0 72 73 67 -.073 .00635 -
.04865 18 72 1325 0 74 69 75 70 ?1 29 73 461 0 75 76 70 -.08 .0127 -.025 18 75 3
88 0 23 72 77 73 ?1 29 76 462 0 77 78 73 -.02 .0127 -.025 18 77 390 0 79 75 80 7
6 ?1 29 78 463 0 80 81 76 -.02 0 -.025 18 80 392 0 29 77 82 78 ?1 29 81 650 0 82
 83 78 433680868994202e-32 .0127 -.055 18 82 577 0 84 80 85 81 ?1 29 83 651 0 85
 86 81 -.06 .0127 -.055 18 85 579 0 87 82 88 83 ?1 29 86 652 0 88 89 83 -.06 0 -
.055 18 88 581 0 90 85 91 86 ?1 29 89 1306 0 91 92 86 -.017 .00635 -.04865 18 91
 933 0 93 88 94 89 ?1 29 92 1308 0 94 95 89 -.067 .00635 -.03135 18 94 970 0 96
 91 97 92 ?1 29 95 1310 0 97 98 92 -.077 .00635 -.03135 18 97 1007 0 99 94 100 9
5 ?1 29 98 1313 0 100 101 95 -.067 .00635 -.04865 18 100 1044 0 102 97 103 98 ?1
 29 101 1314 0 103 104 98 -.007 .00635 -.04865 18 103 1081 0 105 100 106 101 ?1
 29 104 1317 0 106 107 101 -.007 .00635 -.03135 18 106 1118 0 108 103 109 104 ?1
 29 107 1319 0 109 110 104 -.017 .00635 -.03135 18 109 1155 0 111 106 112 107 ?1
 29 110 1321 0 112 113 107 -.077 .00635 -.04865 18 112 1192 0 114 109 115 110 ?1
 29 113 1953 0 115 116 110 0 .0127 -.02 18 115 1880 0 117 112 118 113 ?1 29 116
 1954 0 118 119 113 0 0 -.02 18 118 1882 0 120 115 121 116 ?1 29 119 1955 0 121
 122 116 -.02 0 -.02 18 121 1884 0 123 118 124 119 ?1 29 122 2131 0 124 125 119
 -.08 .0127 -.06 18 124 2058 0 126 121 127 122 ?1 29 125 2132 0 127 128 122 -.08
 0 -.06 18 127 2060 0 129 124 130 125 ?1 29 128 2133 0 130 131 125 -.06 0 -.06 1
8 130 2062 0 132 127 133 128 ?1 29 131 2280 0 134 135 128 -.02 0 -.0423 18 134 2
212 0 38 136 137 131 ?1 29 135 2282 0 133 138 131 1033033004289156e-49 -.005 -.0
55 18 133 2210 0 139 130 140 135 ?1 29 138 2283 0 140 141 135 -.02 -.005 -.055 1
8 140 2209 0 142 133 143 138 ?1 29 141 2284 0 143 144 138 -.02 -.005 -.0423 18 1
43 2208 0 145 140 136 141 ?1 29 144 2285 0 136 146 141 -770371977754894e-48 -.00
5 -.0423 18 136 2213 0 147 143 134 144 ?1 29 146 2428 0 148 149 144 -.06 0 -.037
7 18 148 2360 0 150 151 152 146 ?1 29 149 2429 0 152 153 146 -.08 0 -.0377 18 15
2 2359 0 154 148 0 149 ?1 29 153 2430 0 137 155 149 -.08 -.005 -.025 18 137 2358
 0 156 134 157 153 ?1 29 155 2431 0 157 158 153 -.06 -.005 -.025 18 157 2357 0 1
59 137 160 155 ?1 29 158 2432 0 160 161 155 -.06 -.005 -.0377 18 160 2356 0 162
 157 151 158 ?1 29 161 2433 0 151 0 158 -.08 -.005 -.0377 18 151 2361 0 163 160
 148 161 ?1 17 163 0 164 154 165 151 162 166 0 167 -15 255 164 2381 0 150 168 0
 17 154 0 164 150 163 152 169 170 0 171 +17 165 0 164 163 150 160 172 173 0 174
 -17 162 0 175 159 167 160 163 166 0 165 +16 166 2319 0 ?162 176 177 178 0 0 1 1
7 167 0 175 162 179 151 180 177 0 169 +15 175 2367 0 167 181 182 17 179 0 175 16
7 159 137 30 183 0 180 +17 180 0 184 185 169 137 167 177 0 0 -16 177 2316 0 ?167
 166 186 187 0 0 1 17 169 0 184 180 188 151 154 170 0 0 -15 184 351 0 189 190 0
 17 188 0 184 169 191 152 192 193 0 0 +16 170 2341 0 ?154 194 173 195 0 0 1 16 1
94 2205 0 ?196 197 170 198 0 0 1 16 173 2345 0 ?172 170 32 199 0 0 1 30 255 195
 2410 0 170 199 198 0 +-.08 -.005 -.0377 0 1 0 30 199 2411 0 173 200 195 0 +-.06
 -.005 -.0377 0 1 0 31 198 2277 0 194 195 201 0 +-.005 -.005 -.04865 0 -1 0 0 0
 -1 .002 31 201 2275 0 197 198 202 0 +-.015 -.005 -.04865 0 -1 0 0 0 -1 .002 16
 197 2202 0 ?203 40 194 201 0 0 1 30 202 2273 0 204 201 205 0 +1033033004289156e
-49 -.005 -.055 -687933289908512e-46 0 1 16 204 2168 0 ?206 207 208 202 0 0 1 30
 205 2272 0 207 202 209 0 +-770371977754894e-48 -.005 -.0423 -1 0 0 16 207 2171
 0 ?145 210 204 205 0 0 1 30 209 2271 0 210 205 211 0 +-.02 -.005 -.055 0 0 -1 1
6 210 2174 0 ?142 212 207 209 0 0 1 30 211 2270 0 212 209 213 0 +103303300428915
6e-49 -.005 -.055 1 0 0 16 212 2177 0 ?214 215 210 211 0 0 1 30 213 2268 0 40 21
1 216 0 +-770371977754894e-48 0 -.0423 -1 0 0 16 40 2190 0 ?39 208 197 213 0 0 1
 30 216 2267 0 208 213 217 0 +-.02 0 -.055 0 0 -1 16 208 2194 0 ?218 204 40 216
 0 0 1 30 217 2264 0 215 216 219 0 +-.02 -.005 -.055 0 1 0 16 215 2201 0 ?220 22
1 212 217 0 0 1 30 219 2263 0 221 217 222 0 +-.02 -.005 -.0423 0 1 0 16 221 2197
 0 ?223 224 215 219 0 0 1 30 222 2262 0 224 219 225 0 +-770371977754894e-48 -.00
5 -.0423 0 1 0 16 224 2193 0 ?226 227 221 222 0 0 1 30 225 2125 0 227 222 228 0
 +-.06 0 -.06 0 -1 0 16 227 2039 0 ?132 229 224 225 0 0 1 30 228 2124 0 229 225
 230 0 +-.06 0 -.06 -1 0 0 16 229 2051 0 ?129 231 227 228 0 0 1 30 230 2123 0 23
1 228 232 0 +-.08 0 -.06 0 1 0 16 231 2047 0 ?126 233 229 230 0 0 1 30 232 2122
 0 233 230 234 0 +-.06 .0127 -.06 1 0 0 16 233 2043 0 ?47 235 231 232 0 0 1 31 2
34 2111 0 235 232 236 0 --.075 .00635 -.06 0 0 1 1 0 0 .002 16 235 2024 0 ?237 2
38 233 234 0 0 1 31 236 2110 0 238 234 239 0 --.065 .00635 -.06 0 0 1 1 0 0 .002
 16 238 2025 0 ?240 241 235 236 0 0 1 30 239 1947 0 241 236 242 0 +-.02 .0127 -.
02 0 -1 0 16 241 1861 0 ?123 243 238 239 0 0 1 30 242 1946 0 243 239 244 0 +-.02
 0 -.02 1 0 0 16 243 1873 0 ?120 245 241 242 0 0 1 30 244 1945 0 245 242 246 0 +
0 .0127 -.02 0 1 0 16 245 1869 0 ?117 247 243 244 0 0 1 30 246 1944 0 247 244 24
8 0 +-.02 .0127 -.02 -1 0 0 16 247 1865 0 ?50 249 245 246 0 0 1 31 248 1933 0 24
9 246 250 0 --.015 .00635 -.02 0 0 1 1 0 0 .002 16 249 1877 0 ?251 252 247 248 0
 0 1 31 250 1932 0 252 248 253 0 --.005 .00635 -.02 0 0 1 1 0 0 .002 16 252 1846
 0 ?254 255 249 250 0 0 1 31 253 1305 0 256 250 257 0 --.005 .0127 -.04865 0 1 0
 0 0 1 .002 16 256 1071 0 ?258 259 260 253 0 0 1 31 257 1303 0 260 253 261 0 +-.
005 .0127 -.03135 0 1 0 0 0 1 .002 16 260 1115 0 ?262 256 263 257 0 0 1 31 261 1
302 0 263 257 264 0 +-.005 0 -.03135 0 1 0 0 0 1 .002 16 263 1108 0 ?265 260 266
 261 0 0 1 31 264 1301 0 266 261 267 0 +-.015 .0127 -.03135 0 1 0 0 0 1 .002 16
 266 1152 0 ?268 263 255 264 0 0 1 31 267 1300 0 255 264 269 0 +-.015 0 -.03135
 0 1 0 0 0 1 .002 16 255 1145 0 ?270 266 252 267 0 0 1 31 269 1299 0 271 267 272
 0 --.065 .0127 -.03135 0 1 0 0 0 1 .002 16 271 960 0 ?273 274 259 269 0 0 1 31
 272 1297 0 259 269 275 0 --.015 .0127 -.04865 0 1 0 0 0 1 .002 16 259 923 0 ?27
6 271 256 272 0 0 1 31 275 1295 0 277 272 278 0 +-.065 .0127 -.04865 0 1 0 0 0 1
 .002 16 277 1041 0 ?279 280 281 275 0 0 1 31 278 1294 0 281 275 282 0 +-.065 0
 -.04865 0 1 0 0 0 1 .002 16 281 1034 0 ?283 277 274 278 0 0 1 31 282 1293 0 274
 278 284 0 --.075 .0127 -.03135 0 1 0 0 0 1 .002 16 274 997 0 ?285 281 271 282 0
 0 1 31 284 1291 0 286 282 287 0 +-.075 0 -.04865 0 1 0 0 0 1 .002 16 286 1182 0
 ?288 289 280 284 0 0 1 31 287 1290 0 280 284 290 0 +-.075 .0127 -.04865 0 1 0 0
 0 1 .002 16 280 1189 0 ?291 286 277 287 0 0 1 32 255 290 1289 0 289 287 292 0 -
-.075 .00635 -.04865 0 -.707106781186548 .707106781186548 0 .707106781186548 .70
7106781186548 .002828427124746185 .002 16 289 1187 0 ?74 293 286 290 0 0 1 32 29
2 1288 0 293 290 294 0 +-.075 .00635 -.04865 0 -.707106781186548 .70710678118654
8 0 .707106781186548 .707106781186548 .002828427124746185 .002 16 293 1185 0 ?29
5 296 289 292 0 0 1 32 294 1287 0 296 292 297 0 +-.075 .00635 -.04865 0 .7071067
81186548 .707106781186548 0 -.707106781186548 .707106781186548 .0028284271247461
85 .002 16 296 1188 0 ?298 299 293 294 0 0 1 32 297 1286 0 299 294 300 0 --.075
 .00635 -.04865 0 .707106781186548 .707106781186548 0 -.707106781186548 .7071067
81186548 .002828427124746185 .002 16 299 1186 0 ?301 302 296 297 0 0 1 32 300 12
85 0 302 297 303 0 --.015 .00635 -.03135 0 -.707106781186548 .707106781186548 0
 .707106781186548 .707106781186548 .00282842712474619 .002 16 302 1150 0 ?62 304
 299 300 0 0 1 32 303 1284 0 304 300 305 0 +-.015 .00635 -.03135 0 -.70710678118
6548 .707106781186548 0 .707106781186548 .707106781186548 .00282842712474619 .00
2 16 304 1148 0 ?306 307 302 303 0 0 1 32 305 1283 0 307 303 308 0 +-.015 .00635
 -.03135 0 .707106781186548 .707106781186548 0 -.707106781186548 .70710678118654
8 .00282842712474619 .002 16 307 1151 0 ?309 310 304 305 0 0 1 32 308 1282 0 310
 305 311 0 --.015 .00635 -.03135 0 .707106781186548 .707106781186548 0 -.7071067
81186548 .707106781186548 .00282842712474619 .002 16 310 1149 0 ?312 313 307 308
 0 0 1 32 311 1281 0 313 308 314 0 --.005 .00635 -.03135 0 -.707106781186548 .70
7106781186548 0 .707106781186548 .707106781186548 .00282842712474619 .002 16 313
 1113 0 ?56 315 310 311 0 0 1 32 314 1280 0 315 311 316 0 +-.005 .00635 -.03135
 0 -.707106781186548 .707106781186548 0 .707106781186548 .707106781186548 .00282
842712474619 .002 16 315 1111 0 ?317 318 313 314 0 0 1 32 316 1279 0 318 314 319
 0 +-.005 .00635 -.03135 0 .707106781186548 .707106781186548 0 -.707106781186548
 .707106781186548 .00282842712474619 .002 16 318 1114 0 ?320 321 315 316 0 0 1 3
2 319 1278 0 321 316 322 0 --.005 .00635 -.03135 0 .707106781186548 .70710678118
6548 0 -.707106781186548 .707106781186548 .00282842712474619 .002 16 321 1112 0
 ?323 324 318 319 0 0 1 32 322 1277 0 324 319 325 0 --.005 .00635 -.04865 0 -.70
7106781186548 .707106781186548 0 .707106781186548 .707106781186548 .002828427124
74619 .002 16 324 1074 0 ?326 327 321 322 0 0 1 32 325 1276 0 327 322 328 0 +-.0
05 .00635 -.04865 0 -.707106781186548 .707106781186548 0 .707106781186548 .70710
6781186548 .00282842712474619 .002 16 327 1076 0 ?105 329 324 325 0 0 1 32 328 1
275 0 329 325 330 0 +-.005 .00635 -.04865 0 .707106781186548 .707106781186548 0
 -.707106781186548 .707106781186548 .00282842712474619 .002 16 329 1077 0 ?331 3
32 327 328 0 0 1 32 330 1274 0 332 328 333 0 --.005 .00635 -.04865 0 .7071067811
86548 .707106781186548 0 -.707106781186548 .707106781186548 .00282842712474619 .
002 16 332 1075 0 ?334 335 329 330 0 0 1 32 333 1273 0 335 330 336 0 --.065 .006
35 -.04865 0 -.707106781186548 .707106781186548 0 .707106781186548 .707106781186
548 .002828427124746185 .002 16 335 1039 0 ?68 337 332 333 0 0 1 32 336 1272 0 3
37 333 338 0 +-.065 .00635 -.04865 0 -.707106781186548 .707106781186548 0 .70710
6781186548 .707106781186548 .002828427124746185 .002 16 337 1037 0 ?339 340 335
 336 0 0 1 32 338 1271 0 340 336 341 0 +-.065 .00635 -.04865 0 .707106781186548
 .707106781186548 0 -.707106781186548 .707106781186548 .002828427124746185 .002
 16 340 1040 0 ?342 343 337 338 0 0 1 32 341 1270 0 343 338 344 0 --.065 .00635
 -.04865 0 .707106781186548 .707106781186548 0 -.707106781186548 .70710678118654
8 .002828427124746185 .002 16 343 1038 0 ?345 346 340 341 0 0 1 32 344 1269 0 34
6 341 347 0 --.075 .00635 -.03135 0 -.707106781186548 .707106781186548 0 .707106
781186548 .707106781186548 .002828427124746185 .002 16 346 1000 0 ?348 349 343 3
44 0 0 1 32 347 1268 0 349 344 350 0 +-.075 .00635 -.03135 0 -.707106781186548 .
707106781186548 0 .707106781186548 .707106781186548 .002828427124746185 .002 16
 349 1002 0 ?99 351 346 347 0 0 1 32 350 1267 0 351 347 352 0 +-.075 .00635 -.03
135 0 .707106781186548 .707106781186548 0 -.707106781186548 .707106781186548 .00
2828427124746185 .002 16 351 1003 0 ?353 354 349 350 0 0 1 32 352 1266 0 354 350
 355 0 --.075 .00635 -.03135 0 .707106781186548 .707106781186548 0 -.70710678118
6548 .707106781186548 .002828427124746185 .002 16 354 1001 0 ?356 357 351 352 0
 0 1 32 355 1265 0 357 352 358 0 --.065 .00635 -.03135 0 -.707106781186548 .7071
06781186548 0 .707106781186548 .707106781186548 .002828427124746185 .002 16 357
 963 0 ?359 360 354 355 0 0 1 32 358 1264 0 360 355 361 0 +-.065 .00635 -.03135
 0 -.707106781186548 .707106781186548 0 .707106781186548 .707106781186548 .00282
8427124746185 .002 16 360 965 0 ?96 362 357 358 0 0 1 32 361 1263 0 362 358 363
 0 +-.065 .00635 -.03135 0 .707106781186548 .707106781186548 0 -.707106781186548
 .707106781186548 .002828427124746185 .002 16 362 966 0 ?364 365 360 361 0 0 1 3
2 363 1262 0 365 361 366 0 --.065 .00635 -.03135 0 .707106781186548 .70710678118
6548 0 -.707106781186548 .707106781186548 .002828427124746185 .002 16 365 964 0
 ?367 368 362 363 0 0 1 32 366 1261 0 368 363 369 0 --.015 .00635 -.04865 0 -.70
7106781186548 .707106781186548 0 .707106781186548 .707106781186548 .002828427124
74619 .002 16 368 926 0 ?370 371 365 366 0 0 1 32 369 1260 0 371 366 372 0 +-.01
5 .00635 -.04865 0 -.707106781186548 .707106781186548 0 .707106781186548 .707106
781186548 .00282842712474619 .002 16 371 928 0 ?93 373 368 369 0 0 1 32 372 1259
 0 373 369 374 0 +-.015 .00635 -.04865 0 .707106781186548 .707106781186548 0 -.7
07106781186548 .707106781186548 .00282842712474619 .002 16 373 929 0 ?375 376 37
1 372 0 0 1 32 374 1258 0 376 372 377 0 --.015 .00635 -.04865 0 .707106781186548
 .707106781186548 0 -.707106781186548 .707106781186548 .00282842712474619 .002 1
6 376 927 0 ?378 379 373 374 0 0 1 30 377 645 0 379 374 380 0 +433680868994202e-
32 .0127 -.055 0 -1 0 16 379 560 0 ?139 381 376 377 0 0 1 30 380 644 0 381 377 3
82 0 +433680868994202e-32 0 -.055 -1 0 2312964634635745e-31 16 381 2154 0 ?90 38
3 379 380 0 0 1 30 382 643 0 383 380 384 0 +-.06 .0127 -.055 0 1 0 16 383 568 0
 ?385 386 381 382 0 0 1 30 384 642 0 386 382 387 0 +433680868994202e-32 .0127 -.
055 1 0 -2312964634635745e-31 16 386 564 0 ?388 389 383 384 0 0 1 30 387 636 0 3
90 384 391 0 +-.06 .0127 -.055 -1734723475976805e-31 0 -1 16 390 571 0 ?392 19 3
89 387 0 0 1 30 391 635 0 389 387 393 0 +-.06 0 -.055 -1734723475976805e-31 0 -1
 16 389 575 0 ?394 390 386 391 0 0 1 31 393 631 0 395 391 396 0 --.005 .00635 -.
055 -2312964634635745e-31 0 -1 -1 0 2312964634635745e-31 .002 16 395 545 0 ?397
 398 19 393 0 0 1 30 396 456 0 398 393 399 0 +-.08 .0127 -.025 0 -1 0 16 398 371
 0 ?156 400 395 396 0 0 1 30 399 455 0 400 396 401 0 +-.08 0 -.025 1 0 0 16 400
 2300 0 ?29 402 398 399 0 0 1 30 401 454 0 402 399 403 0 +-.02 .0127 -.025 0 1 0
 16 402 379 0 ?404 405 400 401 0 0 1 30 403 453 0 405 401 406 0 +-.08 .0127 -.02
5 -1 0 0 16 405 375 0 ?407 408 402 403 0 0 1 30 406 447 0 409 403 410 0 +-.02 .0
127 -.025 0 0 1 16 409 382 0 ?411 412 408 406 0 0 1 30 410 446 0 408 406 413 0 +
-.02 0 -.025 0 0 1 16 408 386 0 ?414 409 405 410 0 0 1 31 413 442 0 415 410 416
 0 --.065 .00635 -.025 0 0 1 1 0 0 .002 16 415 356 0 ?417 418 412 413 0 0 1 30 4
16 5 0 24 413 25 0 +0 .0127 0 1878241825980285e-48 0 -1 16 24 1810 0 ?84 10 193
 416 0 0 1 30 25 11 0 10 416 419 0 +-.08 .0127 0 0 0 1 30 419 69 0 418 25 420 0
 +0 0 0 1878241825980285e-48 0 -1 16 418 1813 0 ?41 193 415 419 0 0 1 30 420 67
 0 193 419 20 0 +-.08 0 0 0 0 1 16 193 2003 0 ?188 24 418 420 0 0 1 31 20 307 0
 412 420 7 0 --.075 .00635 -.025 0 0 1 1 0 0 .002 16 412 387 0 ?421 415 409 20 0
 0 1 17 421 0 422 421 421 0 423 412 0 0 +15 422 399 0 421 424 425 17 423 0 426 4
23 423 0 421 412 0 0 -15 426 306 0 423 427 428 14 255 427 808 429 ?190 430 426 5
 431 -432 433 190 430 22 15 428 807 0 434 427 0 17 434 0 428 435 435 97 353 351
 0 0 -17 435 0 428 434 434 69 99 349 0 0 -17 353 0 436 348 348 69 434 351 0 356
 +15 436 1018 0 353 437 438 17 348 0 436 353 353 97 71 346 0 439 +17 356 0 440 9
9 99 69 439 354 0 435 +15 440 1013 0 356 441 0 17 99 0 440 356 356 97 435 349 0
 348 +17 439 0 442 71 71 97 356 354 0 434 -15 442 811 0 439 433 0 17 71 0 442 43
9 439 69 348 346 0 353 -14 433 812 443 ?444 445 446 5 431 -427 432 444 445 22 81
 1 443 2970 447 433 448 0 429 449 450 14 444 848 449 ?451 433 452 5 453 -430 454
 451 433 22 14 445 935 455 ?433 456 457 5 458 +459 459 433 456 22 15 446 785 0 7
4 433 442 51 255 431 269 0 432 460 453 0 +-.075 .00635 -.08 0 0 1 .002 1 0 0 14
 432 308 461 ?424 454 462 5 431 -433 427 424 454 22 13 22 29 0 0 0 0 0 0 9 15 14
 15 2312 463 ?464 0 465 5 466 -0 0 464 0 22 81 1 463 2974 447 15 467 0 461 468 4
69 14 464 1842 468 ?470 15 471 5 472 -473 474 470 15 22 15 465 683 0 288 15 475
 50 466 65 0 15 476 18 0 +0 0 0 0 1 0 0 0 1 50 476 2 0 477 472 466 0 +0 .0127 0
 0 1 0 0 0 1 50 18 87 0 190 466 6 0 +-.08 .0127 0 1 0 0 0 0 -1 14 190 353 478 ?4
54 427 184 5 18 -0 0 454 427 22 81 1 478 2976 447 190 479 0 468 480 481 14 454 3
13 480 ?432 190 482 5 453 -444 430 432 190 22 81 1 480 2977 447 454 483 0 478 48
4 485 15 482 1994 0 240 454 486 51 453 266 0 454 431 487 0 +-.065 .00635 -.08 0
 0 1 .002 1 0 0 14 430 844 484 ?427 488 489 5 453 -454 444 427 488 22 81 1 484 2
978 447 430 490 0 480 491 492 14 488 884 491 ?430 474 493 5 487 -470 451 430 474
 22 15 489 312 0 494 430 495 17 494 0 489 494 494 0 417 415 0 0 -15 495 843 0 49
6 430 0 17 496 0 495 497 497 94 364 362 0 0 -17 497 0 495 496 496 63 96 360 0 0
 -17 364 0 498 359 359 63 496 362 0 367 +15 498 981 0 364 499 500 17 359 0 498 3
64 364 94 65 357 0 501 +17 367 0 502 96 96 63 501 365 0 497 +15 502 976 0 367 45
6 0 17 96 0 502 367 367 94 497 360 0 359 +17 501 0 503 65 65 94 367 365 0 496 -1
5 503 847 0 501 444 0 17 65 0 503 501 501 63 359 357 0 364 -14 456 972 504 ?445
 441 505 5 506 +499 499 445 441 22 81 1 504 2980 447 456 507 0 491 508 509 14 44
1 1009 508 ?456 510 511 5 512 +437 437 456 510 22 15 505 975 0 513 456 502 51 50
6 1248 0 456 514 458 0 --.065 0 -.03135 0 1 0 .002 0 0 1 14 499 977 515 ?459 437
 498 5 506 +456 456 459 437 22 81 1 515 2982 447 499 516 0 508 517 518 14 459 94
0 517 ?519 499 520 5 458 +445 445 519 499 22 14 437 1014 521 ?499 522 436 5 512
 +441 441 499 522 22 81 1 521 2984 447 437 523 0 517 524 525 14 522 1046 524 ?43
7 526 527 5 528 -510 510 437 526 22 51 512 1239 0 441 528 529 0 --.075 0 -.03135
 0 1 0 .002 0 0 1 51 528 1242 0 522 458 512 0 +-.065 0 -.04865 0 1 0 .002 0 0 1
 51 529 1234 0 530 512 531 0 +-.075 0 -.04865 0 1 0 .002 0 0 1 14 530 1194 532 ?
533 534 535 5 529 -519 519 533 534 22 50 531 630 0 536 529 537 0 +-1416690838714
392e-32 0 -.055 -2312964634635745e-31 0 -1 -1 0 2312964634635745e-31 14 536 585
 538 ?534 424 539 5 531 +0 0 534 424 22 50 537 627 0 534 531 540 0 +-.06 .0127 -
.055 -1 0 1734723475976805e-31 1734723475976805e-31 0 1 14 534 609 541 ?530 536
 542 5 537 -0 0 530 536 22 50 540 441 0 424 537 460 0 +0 0 -.025 0 0 1 1 0 0 14
 424 396 543 ?536 432 28 5 540 +0 0 536 432 22 50 460 438 0 544 540 431 0 +-.02
 .0127 -.025 1 0 0 0 0 -1 14 544 1806 545 ?474 17 546 5 460 -0 0 474 17 22 81 1
 545 2990 447 544 547 0 543 548 549 14 474 920 548 ?488 544 550 5 472 -464 473 4
88 544 22 14 17 1818 551 ?544 477 552 5 6 -0 0 544 477 22 15 546 1804 0 553 544
 0 17 553 0 546 79 414 48 123 241 0 411 -17 79 0 546 554 553 77 411 409 0 404 -1
7 414 0 546 553 554 121 555 408 0 0 +17 123 0 556 120 50 121 553 241 0 557 +17 4
11 0 558 559 560 48 79 409 0 0 +15 558 2018 0 561 477 562 17 559 0 558 84 411 11
5 50 247 0 563 -17 560 0 558 411 23 77 407 405 0 0 -17 23 0 558 560 561 75 189 1
0 0 407 +17 407 0 28 156 404 75 560 405 0 185 +15 28 398 0 156 424 422 17 156 0
 28 30 407 137 185 398 0 179 +17 404 0 28 407 29 77 554 402 0 560 +17 185 0 184
 189 180 75 156 398 0 0 -17 189 0 184 191 185 124 23 10 0 0 -17 191 0 184 188 18
9 127 126 231 0 192 -17 126 0 564 47 129 124 191 231 0 561 +17 192 0 36 565 171
 127 188 193 0 0 -15 36 2310 0 171 15 0 17 565 0 36 566 192 130 129 229 0 394 -1
7 171 0 36 192 567 152 150 568 0 188 -17 567 0 36 171 569 148 33 186 0 0 -17 150
 0 164 165 154 148 171 568 0 172 +16 568 2338 0 ?150 186 570 571 0 0 1 16 186 23
42 0 ?33 177 568 572 0 0 1 16 570 2350 0 ?573 568 574 575 0 0 1 30 571 2416 0 56
8 576 572 0 +-.08 0 -.0377 1 0 0 30 576 2418 0 183 577 571 0 +-.08 -.005 -.025 -
1 0 0 30 572 2415 0 186 571 200 0 +-.06 0 -.025 -546369598732853e-30 0 1 30 200
 2412 0 32 572 199 0 +-.06 -.005 -.025 0 1 0 16 32 2349 0 ?26 173 183 200 0 0 1
 16 183 2325 0 ?179 32 176 576 0 0 1 16 176 2322 0 ?159 183 166 577 0 0 1 17 159
 0 175 179 162 157 174 176 0 31 +30 577 2419 0 176 178 576 0 +-.06 -.005 -.025 -
546369598732853e-30 0 1 30 178 2420 0 166 187 577 0 +-.08 -.005 -.0377 1 0 0 30
 187 2421 0 177 575 178 0 +-.08 -.005 -.025 0 0 -1 31 575 2423 0 570 578 187 0 +
-.065 -.005 -.03135 0 -1 0 0 0 -1 .002 31 578 2425 0 574 0 575 0 +-.075 -.005 -.
03135 0 -1 0 0 0 -1 .002 16 574 2353 0 ?579 570 0 578 0 0 1 17 579 0 438 579 579
 0 580 574 0 0 +15 438 2398 0 579 437 0 17 580 0 182 580 580 0 579 574 0 0 -15 1
82 2368 0 580 181 0 14 181 2364 581 ?168 582 583 5 584 +0 0 168 582 22 81 1 581
 2993 447 181 585 0 551 586 587 14 168 2378 586 ?588 181 164 5 589 -0 0 588 181
 22 14 582 2234 590 ?181 591 592 5 593 -0 0 181 591 22 15 583 2366 0 594 181 175
 50 584 2407 0 181 0 595 0 +0 -.005 0 0 -1 0 0 0 -1 50 595 2404 0 588 584 589 0
 +-.06 -.005 -.025 -1 0 -546369598732853e-30 -546369598732853e-30 0 1 14 588 238
2 596 ?0 168 597 5 595 -0 0 0 168 22 50 589 2403 0 168 595 598 0 +-.08 -.005 -.0
377 0 0 1 1 0 0 50 598 2259 0 599 589 593 0 +0 -.005 0 0 -1 0 0 0 -1 14 599 2216
 600 ?591 601 602 5 598 +0 0 591 601 22 50 593 2256 0 582 598 603 0 +-.02 -.005
 -.055 1 0 0 0 0 -1 50 603 2255 0 591 593 604 0 +-770371977754894e-48 -.005 -.04
23 0 0 -1 -1 0 0 14 591 2230 605 ?582 599 606 5 603 -0 0 582 599 22 50 604 2109
 0 601 603 607 0 +3469446951953615e-33 0 -.06 0 0 1 1 0 0 14 601 2064 608 ?599 6
09 610 5 604 -0 0 599 609 22 50 607 1931 0 609 604 611 0 +0 0 -.02 0 0 1 1 0 0 1
4 609 1886 612 ?601 473 556 5 607 +0 0 601 473 22 51 611 1257 0 613 607 614 0 --
.005 0 -.04865 0 1 0 .002 0 0 1 14 613 1083 615 ?510 616 617 5 611 +526 526 510
 616 22 51 614 1254 0 618 611 514 0 +-.005 0 -.03135 0 1 0 .002 0 0 1 14 618 112
0 619 ?526 533 620 5 614 -616 616 526 533 22 51 514 1251 0 533 614 506 0 +-.015
 0 -.03135 0 1 0 .002 0 0 1 14 533 1157 621 ?618 530 622 5 514 -623 623 618 530
 22 81 1 621 3003 447 533 624 0 619 625 626 15 622 1160 0 627 533 628 14 623 116
2 625 ?616 519 629 5 514 -533 533 616 519 22 81 1 625 3004 447 623 630 0 621 631
 632 14 616 1125 631 ?613 623 633 5 614 -618 618 613 623 22 14 519 1199 634 ?623
 459 635 5 529 -530 530 623 459 22 15 629 1165 0 268 623 636 17 268 0 629 268 26
8 0 637 266 0 0 +15 636 1166 0 638 623 0 17 638 0 636 639 639 109 62 302 0 312 -
17 639 0 636 638 638 60 309 307 0 640 -17 62 0 641 312 312 60 638 302 0 639 +17
 312 0 641 62 62 109 640 310 0 309 +15 641 857 0 62 470 642 17 640 0 628 111 111
 60 312 310 0 306 -17 309 0 643 306 306 109 639 307 0 0 +15 643 851 0 306 451 64
4 17 306 0 643 309 309 60 111 304 0 0 +17 111 0 628 640 640 109 306 304 0 638 -1
5 628 1161 0 111 533 0 14 451 880 645 ?473 444 643 5 487 -488 470 473 444 22 15
 644 879 0 646 451 0 17 646 0 644 647 647 91 375 373 0 0 -17 647 0 644 646 646 5
7 93 371 0 0 -17 375 0 520 370 370 57 646 373 0 378 +15 520 944 0 375 459 648 17
 370 0 520 375 375 91 59 368 0 649 +17 378 0 650 93 93 57 649 376 0 647 +15 650
 939 0 378 445 0 17 93 0 650 378 378 91 647 371 0 370 +17 649 0 651 59 59 91 378
 376 0 646 -15 651 883 0 649 488 0 17 59 0 651 649 649 57 370 368 0 375 -15 648
 2245 0 203 459 0 17 203 0 648 203 203 0 652 197 0 0 +17 652 0 602 652 652 0 203
 197 0 0 -15 602 2218 0 652 599 653 15 653 2219 0 206 599 654 17 206 0 653 145 2
14 136 655 204 0 656 +15 654 2220 0 657 599 0 17 657 0 654 657 657 0 196 194 0 0
 -17 196 0 658 196 196 0 657 194 0 0 +15 658 2250 0 196 526 0 14 526 1088 659 ?5
22 618 660 5 611 +613 613 522 618 22 81 1 659 3008 447 526 661 0 645 662 663 15
 660 1092 0 331 526 658 17 331 0 660 326 326 51 664 329 0 334 +17 326 0 660 331
 331 103 53 324 0 665 +17 664 0 666 667 667 103 331 329 0 0 -17 334 0 668 105 10
5 51 665 332 0 667 +15 668 1087 0 334 613 0 17 105 0 668 334 334 103 667 327 0 3
26 +17 665 0 669 53 53 103 334 332 0 664 -17 667 0 666 664 664 51 105 327 0 0 -1
5 666 915 0 664 473 0 14 473 916 662 ?609 451 670 5 472 -474 464 609 451 22 81 1
 662 3009 447 473 671 0 659 672 673 15 670 887 0 317 473 666 51 472 260 0 474 48
7 476 0 +-.005 .00635 -.08 0 0 1 .002 1 0 0 51 487 263 0 488 453 472 0 +-.015 .0
0635 -.08 0 0 1 .002 1 0 0 17 317 0 670 320 320 54 108 315 0 0 +17 320 0 670 317
 317 106 674 318 0 0 +17 108 0 675 676 676 106 317 315 0 677 -15 675 1124 0 108
 618 0 17 676 0 675 108 108 54 323 321 0 317 -17 677 0 678 674 674 106 56 313 0
 323 -15 678 1129 0 677 616 0 17 674 0 678 677 677 54 320 318 0 676 -17 56 0 471
 323 323 54 677 313 0 674 +17 323 0 471 56 56 106 676 321 0 320 +15 471 893 0 56
 464 679 15 679 1841 0 680 464 0 17 680 0 679 680 680 0 254 252 0 0 -17 254 0 68
1 254 254 0 680 252 0 0 +15 681 1890 0 254 609 0 80 255 1 447 682 683 9000 1 1 1
 1 1 1 1 1 0 FFFFTFTFFFFFFF1 81 1 671 2862 684 473 0 662 685 686 687 81 1 672 30
10 447 470 688 0 662 689 690 82 255 1 673 -1560280949 14 470 1836 672 ?477 464 6
41 5 487 -451 488 477 464 22 81 1 688 2829 684 470 0 672 691 692 693 81 1 689 30
11 447 477 692 0 672 694 695 82 1 690 55836817 14 477 1830 689 ?17 470 558 5 476
 +0 0 17 470 22 81 1 692 2830 684 477 0 689 688 696 697 81 1 694 3012 447 510 69
8 0 689 0 699 82 1 695 55312540 14 510 1051 694 ?441 613 700 5 528 -522 522 441
 613 22 81 1 698 2855 684 510 0 694 701 702 703 82 1 699 -1584791413 80 1 684 0
 704 8001 0 0 0 0 3 5 0 0 0 FFFFTFTFFFFFFF2 81 1 701 2854 684 613 0 615 705 698
 706 81 1 702 2856 684 441 0 508 698 507 707 83 255 3 703 .792156862745098 .8196
07843137255 .933333333333333 81 1 508 2981 447 441 702 0 504 515 708 81 1 507 28
57 684 456 0 504 702 709 710 83 3 707 .792156862745098 .819607843137255 .9333333
33333333 81 1 709 2858 684 445 0 455 507 448 711 83 3 710 .792156862745098 .8196
07843137255 .933333333333333 81 1 455 2972 447 445 709 0 449 461 712 81 1 448 28
59 684 433 0 443 709 713 714 83 3 711 .792156862745098 .819607843137255 .9333333
33333333 81 1 713 2860 684 444 0 449 448 685 715 83 3 714 .792156862745098 .8196
07843137255 .933333333333333 81 1 449 2971 447 444 713 0 443 455 716 81 1 685 28
61 684 451 0 645 713 671 717 83 3 715 .792156862745098 .819607843137255 .9333333
33333333 81 1 645 3007 447 451 685 0 634 659 718 83 3 717 .792156862745098 .8196
07843137255 .933333333333333 81 1 634 3006 447 519 719 0 631 645 720 82 1 718 -1
563688821 81 1 719 2851 684 519 0 634 721 630 722 81 1 631 3005 447 616 705 0 62
5 634 723 82 1 720 -1593442165 81 1 705 2853 684 616 0 631 630 701 724 82 1 723
 -1589116789 81 1 630 2852 684 623 0 625 719 705 725 83 3 724 .792156862745098 .
819607843137255 .933333333333333 83 3 725 .792156862745098 .819607843137255 .933
333333333333 81 1 721 2850 684 459 0 517 516 719 726 83 3 722 .792156862745098 .
819607843137255 .933333333333333 81 1 517 2983 447 459 721 0 515 521 727 81 1 51
6 2849 684 499 0 515 523 721 728 83 3 726 .792156862745098 .819607843137255 .933
333333333333 81 1 523 2848 684 437 0 521 729 516 730 83 3 728 .792156862745098 .
819607843137255 .933333333333333 81 1 729 2847 684 522 0 524 661 523 731 83 3 73
0 .792156862745098 .819607843137255 .933333333333333 81 1 524 2985 447 522 729 0
 521 532 732 81 1 661 2846 684 526 0 659 733 729 734 83 3 731 .792156862745098 .
819607843137255 .933333333333333 81 1 733 2845 684 618 0 619 624 661 735 83 3 73
4 .792156862745098 .819607843137255 .933333333333333 81 1 619 3002 447 618 733 0
 615 621 736 81 1 624 2844 684 533 0 621 737 733 738 83 3 735 .792156862745098 .
819607843137255 .933333333333333 81 1 737 2843 684 530 0 532 739 624 740 83 3 73
8 .792156862745098 .819607843137255 .933333333333333 81 1 532 2986 447 530 737 0
 524 538 741 81 1 739 2842 684 534 0 541 742 737 743 83 3 740 .792156862745098 .
819607843137255 .933333333333333 81 1 541 2988 447 534 739 0 538 543 744 81 1 74
2 2841 684 536 0 538 745 739 746 83 3 743 .792156862745098 .819607843137255 .933
333333333333 81 1 538 2987 447 536 742 0 532 541 747 81 1 745 2840 684 424 0 543
 748 742 749 83 3 746 .792156862745098 .819607843137255 .933333333333333 81 1 54
3 2989 447 424 745 0 541 545 750 81 1 748 2839 684 432 0 461 483 745 751 83 3 74
9 .792156862745098 .819607843137255 .933333333333333 81 1 461 2973 447 432 748 0
 455 463 752 81 1 483 2838 684 454 0 480 479 748 753 83 3 751 .792156862745098 .
819607843137255 .933333333333333 81 1 479 2837 684 190 0 478 754 483 755 83 3 75
3 .792156862745098 .819607843137255 .933333333333333 81 1 754 2836 684 427 0 429
 490 479 756 83 3 755 .792156862745098 .819607843137255 .933333333333333 81 1 42
9 2969 447 427 754 0 0 443 757 81 1 490 2835 684 430 0 484 758 754 759 83 3 756
 .792156862745098 .819607843137255 .933333333333333 81 1 758 2834 684 488 0 491
 760 490 761 83 3 759 .792156862745098 .819607843137255 .933333333333333 81 1 49
1 2979 447 488 758 0 484 504 762 81 1 760 2833 684 474 0 548 547 758 763 83 3 76
1 .792156862745098 .819607843137255 .933333333333333 81 1 548 2991 447 474 760 0
 545 551 764 81 1 547 2832 684 544 0 545 696 760 765 83 3 763 .792156862745098 .
819607843137255 .933333333333333 81 1 696 2831 684 17 0 551 692 547 766 83 3 765
 .792156862745098 .819607843137255 .933333333333333 81 1 551 2992 447 17 696 0 5
48 581 767 83 3 766 .792156862745098 .819607843137255 .933333333333333 82 1 767
 54263969 82 1 764 -1559887733 82 1 762 -1563295605 82 1 757 -1570504565 82 1 75
2 -1990983524 82 1 750 -1988951903 82 1 747 -1953169247 82 1 744 -1958346596 82
 1 741 -1592917877 81 1 615 3001 447 613 701 0 612 619 768 82 1 736 -1588592501
 81 1 612 3000 447 609 686 0 608 615 769 82 1 768 -1586429813 81 1 686 2863 684
 609 0 612 671 770 771 81 1 608 2999 447 601 770 0 605 612 772 82 1 769 53149841
 81 1 770 2864 684 601 0 608 686 773 774 81 1 605 2998 447 591 775 0 600 608 776
 82 1 772 -219479908 81 1 775 2866 684 591 0 605 773 777 778 81 1 600 2997 447 5
99 773 0 596 605 779 82 1 776 -182320991 81 1 773 2865 684 599 0 600 770 775 780
 81 1 596 2996 447 588 781 0 590 600 782 82 1 779 -147128159 81 1 781 2870 684 5
88 0 596 783 0 784 81 1 590 2995 447 582 777 0 586 596 785 82 1 782 -170852191 8
1 1 777 2867 684 582 0 590 775 585 786 81 1 586 2994 447 168 783 0 581 590 787 8
2 1 785 -182583135 81 1 783 2869 684 168 0 586 585 781 788 82 1 787 -170590047 8
1 1 585 2868 684 181 0 581 777 783 789 83 3 788 .792156862745098 .81960784313725
5 .933333333333333 83 3 789 .792156862745098 .819607843137255 .933333333333333 8
3 3 786 .792156862745098 .819607843137255 .933333333333333 83 3 784 .79215686274
5098 .819607843137255 .933333333333333 83 3 780 .792156862745098 .81960784313725
5 .933333333333333 83 3 778 .792156862745098 .819607843137255 .933333333333333 8
3 3 774 .792156862745098 .819607843137255 .933333333333333 83 3 771 .79215686274
5098 .819607843137255 .933333333333333 82 1 732 -1584267125 82 1 727 -1578303327
 82 1 716 -1566703477 82 1 712 -1577779061 82 1 708 -1582104437 83 3 706 .792156
862745098 .819607843137255 .933333333333333 79 255 15 704 SDL/TYSA_COLOUR15 700
 1054 0 279 510 790 17 279 0 700 279 279 0 791 277 0 0 +15 790 1055 0 792 510 0
 17 792 0 790 793 793 100 68 335 0 345 -17 793 0 790 792 792 66 342 340 0 794 -1
7 68 0 452 345 345 66 792 335 0 793 +17 345 0 452 68 68 100 794 343 0 342 +15 45
2 821 0 68 444 503 17 794 0 795 102 102 66 345 343 0 339 -17 342 0 486 339 339 1
00 793 340 0 0 +15 486 815 0 339 454 0 17 339 0 486 342 342 66 102 337 0 0 +17 1
02 0 795 794 794 100 339 337 0 792 -15 795 1050 0 102 522 0 17 791 0 796 791 791
 0 279 277 0 0 -15 796 756 0 791 477 797 15 797 761 0 285 477 798 17 285 0 797 2
85 285 0 799 274 0 0 +15 798 773 0 276 477 0 17 276 0 798 276 276 0 800 259 0 0
 +17 800 0 457 800 800 0 276 259 0 0 -15 457 938 0 800 445 650 17 799 0 511 799
 799 0 285 274 0 0 -15 511 1012 0 799 441 440 83 3 697 .792156862745098 .8196078
43137255 .933333333333333 81 1 691 2828 684 464 0 468 467 688 801 83 3 693 .7921
56862745098 .819607843137255 .933333333333333 81 1 468 2975 447 464 691 0 463 47
8 802 81 1 467 2827 684 15 0 463 0 691 803 83 3 801 .792156862745098 .8196078431
37255 .933333333333333 83 3 803 .792156862745098 .819607843137255 .9333333333333
33 82 1 802 56361105 83 3 687 .792156862745098 .819607843137255 .933333333333333
 79 14 683 SWEntUnchanged15 669 919 0 665 474 0 17 53 0 669 665 665 51 326 324 0
 331 -82 1 663 -1586954079 17 145 0 653 142 206 143 147 207 0 804 +17 214 0 653
 206 142 133 805 212 0 655 +17 655 0 552 806 656 133 206 204 0 0 -17 656 0 552 6
55 41 136 226 224 0 0 -15 552 1816 0 807 17 0 17 41 0 552 656 807 27 37 418 0 22
6 +17 226 0 606 39 147 27 656 224 0 0 +15 606 2233 0 39 591 0 17 39 0 606 804 22
6 134 34 40 0 223 +17 147 0 606 226 804 136 145 207 0 206 -17 804 0 606 147 39 1
43 223 221 0 808 -17 223 0 592 218 808 134 804 221 0 0 +17 808 0 592 223 809 143
 142 210 0 0 -15 592 2237 0 218 582 0 17 809 0 592 808 218 140 220 215 0 805 -17
 142 0 653 214 145 140 808 210 0 809 +17 218 0 592 809 223 35 38 208 0 220 +17 2
20 0 539 90 805 35 809 215 0 0 +17 805 0 539 220 139 140 214 212 0 0 -15 539 587
 0 139 536 810 17 139 0 539 805 388 133 806 379 0 214 +17 388 0 539 139 385 82 8
11 386 0 806 +17 806 0 552 563 655 82 139 379 0 0 -17 563 0 552 807 806 115 84 2
4 0 0 -17 807 0 552 41 563 118 117 245 0 37 -17 84 0 558 811 559 82 563 24 0 388
 +17 811 0 558 392 84 85 388 386 0 0 -17 392 0 558 561 811 43 87 390 0 0 +17 561
 0 558 23 392 124 47 233 0 189 -17 87 0 542 812 813 85 392 390 0 385 -15 542 612
 0 394 534 0 17 812 0 542 394 87 88 385 383 0 566 -17 813 0 542 87 394 43 132 22
7 0 392 -17 385 0 539 388 90 85 812 383 0 811 +17 90 0 539 385 220 88 42 381 0 8
12 +17 42 0 36 38 566 35 90 381 0 218 -17 38 0 36 34 42 134 218 208 0 39 -17 566
 0 36 42 565 88 394 389 0 0 -17 394 0 542 813 812 130 566 389 0 0 +17 132 0 564
 129 47 130 813 227 0 565 +15 564 2067 0 132 601 814 17 129 0 564 126 132 127 56
5 229 0 191 +17 47 0 564 132 126 43 561 233 0 813 +15 814 2068 0 815 601 0 17 81
5 0 814 815 815 0 240 238 0 0 -17 240 0 482 240 240 0 815 238 0 0 +17 117 0 556
 50 120 115 807 245 0 559 +17 37 0 36 557 34 118 41 418 0 0 -17 557 0 36 555 37
 121 120 243 0 414 -17 555 0 36 569 557 80 414 408 0 0 -17 120 0 556 117 123 118
 557 243 0 807 +15 556 1888 0 123 609 816 15 816 1889 0 251 609 681 17 251 0 816
 251 251 0 817 249 0 0 +17 817 0 642 817 817 0 251 249 0 0 -15 642 1835 0 817 47
0 0 17 569 0 36 567 555 11 29 400 0 0 -17 29 0 28 404 26 80 569 400 0 554 +17 55
4 0 546 414 79 80 404 402 0 555 -17 50 0 556 123 117 48 559 247 0 553 +15 810 58
8 0 818 536 819 17 818 0 810 818 818 0 820 19 0 0 +15 819 589 0 397 536 0 17 397
 0 819 397 397 0 821 395 0 0 +17 821 0 550 821 821 0 397 395 0 0 -15 550 501 0 8
21 474 669 17 820 0 493 820 820 0 818 19 0 0 -16 19 576 0 ?818 395 390 7 0 0 1 1
5 493 495 0 820 488 651 17 637 0 822 637 637 0 268 266 0 0 -15 822 738 0 637 477
 823 15 823 732 0 824 477 796 17 824 0 823 824 824 0 291 280 0 0 -17 291 0 635 2
91 291 0 824 280 0 0 +15 635 1202 0 291 519 825 15 825 1203 0 826 519 0 17 826 0
 825 827 827 112 74 289 0 301 -17 827 0 825 826 826 72 298 296 0 828 -17 74 0 44
6 301 301 72 826 289 0 827 +17 301 0 446 74 74 112 828 299 0 298 +17 828 0 829 1
14 114 72 301 299 0 295 -17 298 0 830 295 295 112 827 296 0 0 +15 830 779 0 295
 432 0 17 295 0 830 298 298 72 114 293 0 0 +17 114 0 829 828 828 112 295 293 0 8
26 -15 829 1198 0 114 530 0 15 633 1128 0 262 616 678 17 262 0 633 262 262 0 831
 260 0 0 +17 831 0 832 831 831 0 262 260 0 0 -15 832 744 0 831 477 822 82 1 632
 -1591279477 17 627 0 622 627 627 0 270 255 0 0 -17 270 0 475 270 270 0 627 255
 0 0 +15 475 689 0 270 15 833 15 833 695 0 265 15 834 17 265 0 833 265 265 0 835
 263 0 0 +15 834 707 0 283 15 36 17 283 0 834 283 283 0 836 281 0 0 +17 836 0 52
7 836 836 0 283 281 0 0 -15 527 1049 0 836 522 795 17 835 0 620 835 835 0 265 26
3 0 0 -15 620 1123 0 835 618 675 82 1 626 -1590755189 15 617 1086 0 837 613 668
 17 837 0 617 837 837 0 258 256 0 0 -17 258 0 838 258 258 0 837 256 0 0 +15 838
 749 0 258 477 832 15 610 2066 0 839 601 564 17 839 0 610 839 839 0 237 235 0 0
 -17 237 0 462 237 237 0 839 235 0 0 +15 462 1988 0 237 432 830 15 597 2385 0 33
 588 0 17 33 0 597 31 172 11 567 186 0 569 +17 31 0 597 174 33 157 26 32 0 30 -1
7 172 0 597 33 174 148 165 173 0 567 +17 174 0 597 172 31 160 159 176 0 0 -17 30
 0 28 26 156 157 179 183 0 0 -17 594 0 583 594 594 0 573 570 0 0 -17 573 0 500 5
73 573 0 594 570 0 0 +15 500 2393 0 573 499 0 82 1 587 -149815135 15 562 767 0 2
73 477 838 17 273 0 562 273 273 0 513 271 0 0 +17 513 0 505 513 513 0 273 271 0
 0 -82 1 549 50987153 15 535 1197 0 840 530 829 17 840 0 535 840 840 0 288 286 0
 0 -17 288 0 465 288 288 0 840 286 0 0 +51 458 1245 0 445 506 528 0 --.015 0 -.0
4865 0 1 0 .002 0 0 1 82 1 525 -1582628703 82 1 518 -1580466015 82 1 509 -157994
1749 17 417 0 425 417 417 0 494 415 0 0 +15 425 400 0 417 424 0 82 1 492 -156709
6693 82 1 485 -1988493156 82 1 481 -1984560991 82 1 469 -140640095 82 1 450 -157
0111349 19 16 95 0 1 0 9 5 S0 74 4 CI16 index_map_offset0 0 1 dCCZ20 14 3 0 0 69
4 2 781 0 0 0 0 0 0 0 0 0 0 0 0 0 0 0 0 0 80 2 12 841 842 8004 0 0 0 0 3 5 0 0 0
 FFTFFFFFFFFFFF2 3 83 1 13 1 79 16 842 SDL/TYSA_DENSITY1 0 
